<?xml version="1.0" encoding="utf-8"?>
<!-- Generator: Adobe Illustrator 16.0.0, SVG Export Plug-In . SVG Version: 6.00 Build 0)  -->
<!DOCTYPE svg PUBLIC "-//W3C//DTD SVG 1.1//EN" "http://www.w3.org/Graphics/SVG/1.1/DTD/svg11.dtd">
<svg version="1.1" id="Layer_1" xmlns="http://www.w3.org/2000/svg" xmlns:xlink="http://www.w3.org/1999/xlink" x="0px" y="0px"
	 width="300px" height="300px" viewBox="106.477 114.471 300 300" enable-background="new 106.477 114.471 300 300"
	 xml:space="preserve">
<g>
	<path fill="#006699" d="M351.057,289.612c-20.194,0-37.674,10.974-47.298,27.164c-9.608-16.19-27.088-27.164-47.282-27.164
		c-20.193,0-37.674,10.974-47.279,27.164c-9.628-16.19-27.109-27.164-47.301-27.164c-28.038,0-51.199,20.928-54.707,48.02
		c-0.233,1.804,0.32,3.622,1.526,4.991c1.194,1.368,2.936,2.159,4.754,2.159h286.014c1.817,0,3.558-0.785,4.754-2.153
		c1.204-1.371,1.76-3.189,1.526-4.997C402.256,310.54,379.098,289.612,351.057,289.612z"/>
	<path fill="#006699" d="M394.896,363.242h-18.244l-1.505,18.251c-0.426,5.106-3.275,9.774-7.641,12.497
		c-2.586,1.598-5.551,2.445-8.596,2.445c-2.052,0-4.055-0.387-5.988-1.146l-47.067-18.61l-0.396,4.811
		c-0.427,5.108-3.277,9.775-7.641,12.498c-2.588,1.599-5.552,2.444-8.596,2.444c-2.052,0-4.054-0.385-5.988-1.144l-47.069-18.611
		l-0.397,4.813c-0.426,5.106-3.276,9.774-7.641,12.497c-2.587,1.598-5.552,2.445-8.593,2.445c-2.055,0-4.057-0.387-5.989-1.146
		l-70.992-28.072c-2.033-0.795-3.609-2.247-4.776-3.978h-19.713c-2.296,0-4.404,1.24-5.523,3.244
		c-1.118,2.002-1.068,4.451,0.126,6.405l9.014,14.646c10.307,16.736,28.556,26.938,48.204,26.938h173.193
		c19.649,0,37.897-10.201,48.202-26.938l9.014-14.646c1.196-1.954,1.245-4.403,0.126-6.405
		C399.299,364.482,397.19,363.242,394.896,363.242z"/>
	<path fill="#006699" d="M205.681,356.612H146.43c-0.33,0-0.612,0.236-0.68,0.563c-0.059,0.326,0.116,0.646,0.427,0.767
		l71.032,28.094c0.748,0.295,1.536,0.441,2.324,0.441c1.166,0,2.322-0.319,3.344-0.953c1.702-1.061,2.801-2.856,2.965-4.853
		l0.648-7.82l-14.25-5.632C207.977,365.548,205.452,361.306,205.681,356.612z"/>
	<path fill="#006699" d="M275.371,356.612h-47.536h-11.714c-0.333,0-0.613,0.236-0.683,0.563c-0.059,0.326,0.116,0.646,0.429,0.767
		l71.031,28.094c0.749,0.295,1.535,0.441,2.323,0.441c1.167,0,2.325-0.319,3.346-0.953c1.702-1.061,2.802-2.856,2.966-4.853
		l0.648-7.82l-14.248-5.632C277.666,365.548,275.141,361.306,275.371,356.612z"/>
	<path fill="#006699" d="M358.913,386.478c1.167,0,2.324-0.319,3.346-0.952c1.701-1.062,2.799-2.857,2.966-4.854l1.992-24.06h-69.69
		h-11.716c-0.328,0-0.611,0.236-0.681,0.563c-0.056,0.326,0.117,0.646,0.429,0.767l71.033,28.094
		C357.339,386.333,358.125,386.478,358.913,386.478z"/>
	<path fill="#006699" d="M254.096,240.701l-6.435,39.624c2.899-0.396,5.831-0.664,8.818-0.664c3.844,0,7.605,0.404,11.296,1.051
		l5.979-36.813c9.435-3.373,17.264-13.245,19.32-25.912c2.053-12.666-2.249-24.502-10.126-30.686l4.515-27.799
		c0.876-5.427-2.807-10.54-8.234-11.424c-5.416-0.899-10.538,2.815-11.425,8.234l-4.517,27.799
		c-9.43,3.373-17.259,13.242-19.313,25.902C241.912,222.678,246.217,234.517,254.096,240.701z M255.828,206.78
		c0.972-5.989,5.617-10.214,10.371-9.441c4.743,0.769,7.817,6.248,6.846,12.234c-0.972,5.99-5.619,10.219-10.371,9.447
		C257.927,218.252,254.854,212.765,255.828,206.78z"/>
</g>
</svg>
