<?xml version="1.0" encoding="utf-8"?>
<!-- Generator: Adobe Illustrator 16.0.0, SVG Export Plug-In . SVG Version: 6.00 Build 0)  -->
<!DOCTYPE svg PUBLIC "-//W3C//DTD SVG 1.1//EN" "http://www.w3.org/Graphics/SVG/1.1/DTD/svg11.dtd">
<svg version="1.1" id="Capa_1" xmlns="http://www.w3.org/2000/svg" xmlns:xlink="http://www.w3.org/1999/xlink" x="0px" y="0px"
	 width="200px" height="200px" viewBox="156 156 200 200" enable-background="new 156 156 200 200" xml:space="preserve">
<g>
	<g>
		<path fill="#006699" d="M256.006,174.198c-45.181,0-81.802,36.621-81.802,81.802c0,32.554,19.065,60.578,46.593,73.744
			l2.56-49.473c0,0-4.816-1.581-5.87-2.096c-10.215-4.499-17.635-17.748-17.635-34.942c0-18.763,14.551-34.925,28.62-35.058
			c0.018,0,0.018,0,0.03,0c0.006,0,0.018,0,0.023,0c14.071,0.133,28.623,16.294,28.623,35.058c0,17.194-7.43,30.438-17.624,34.942
			c-0.08,0.035-5.917,2.155-5.917,2.155l2.859,55.008c6.275,1.545,12.799,2.451,19.55,2.451c9.106,0,17.826-1.551,26.006-4.292
			l2.534-49.023c-6.677-1.469-12.373-5.719-15.942-11.052c-4.422-6.625,3.404-65.253,3.404-65.253h5.091v55.017h5.057v-55.011h5.528
			v55.022h5.032v-55.022h5.737v55.022h5.049v-55.022h3.907c0,0,7.826,58.628,3.398,65.253c-3.534,5.28-9.177,9.519-15.771,11.022
			c-0.118,0.042-0.226,0.083-0.226,0.083l2.202,42.168c24.367-14.167,40.789-40.486,40.789-70.702
			C337.802,210.819,301.182,174.198,256.006,174.198z"/>
		<path fill="#006699" d="M211.826,234.916c0.293-1.192,0.687-2.326,0.705-2.347c0.127-0.447-0.109-0.903-0.595-1.193
			c-0.461-0.249-1.024-0.121-1.284,0.278c0,0-0.56,0.891-1.371,2.208c-0.66,1.134-1.636,2.945-2.303,5.201
			c-0.577,1.977-1.267,4.605-1.578,7.547c-0.133,1.545-0.163,2.939-0.116,4.375c0.116,1.636,0.364,3.037,0.838,4.638
			c1.607,4.568,2.845,8.99,7.311,13.353c1.412,1.45,2.862,2.438,3.91,3.167l0.37,0.261c0.226,0.147,0.441,0.284,0.655,0.408
			c0.879,0.462,1.468,0.628,1.575,0.651c0.438,0.117,0.888-0.095,1.074-0.45c0.174-0.373,0.047-0.841-0.317-1.137
			c0,0-0.509-0.443-1.163-1.272c-0.447-0.503-0.933-1.231-1.498-2.054c-0.399-0.581-0.87-1.237-1.308-1.877
			c-2.176-3.321-3.43-7.957-5.165-12.705c-0.34-1.03-0.619-2.365-0.723-3.499c-0.139-1.308-0.204-2.569-0.204-3.738
			c-0.051-2.717,0.071-5.05,0.308-6.941C211.219,237.657,211.432,236.056,211.826,234.916z"/>
		<path fill="#006699" d="M256.006,159.007c-53.478,0-96.999,43.512-96.999,96.993c0,53.469,43.521,96.992,96.999,96.992
			c53.475,0,96.987-43.523,96.987-96.992C352.993,202.519,309.481,159.007,256.006,159.007z M256.006,345.759
			c-49.497,0-89.768-40.268-89.768-89.759c0-49.497,40.271-89.768,89.768-89.768c49.491,0,89.764,40.271,89.764,89.768
			C345.771,305.491,305.497,345.759,256.006,345.759z"/>
	</g>
</g>
</svg>
