<?xml version="1.0" encoding="utf-8"?>
<!-- Generator: Adobe Illustrator 16.0.0, SVG Export Plug-In . SVG Version: 6.00 Build 0)  -->
<!DOCTYPE svg PUBLIC "-//W3C//DTD SVG 1.1//EN" "http://www.w3.org/Graphics/SVG/1.1/DTD/svg11.dtd">
<svg version="1.1" id="Capa_1" xmlns="http://www.w3.org/2000/svg" xmlns:xlink="http://www.w3.org/1999/xlink" x="0px" y="0px"
	 width="300px" height="300px" viewBox="106 106 300 300" enable-background="new 106 106 300 300" xml:space="preserve">
<g>
	<g>
		<path fill="#006699" d="M256.009,130.765c-69.17,0-125.235,56.064-125.235,125.235c0,49.841,29.188,92.743,71.332,112.9
			l3.92-75.741c0,0-7.374-2.422-8.988-3.21c-15.639-6.888-26.999-27.17-26.999-53.496c0-28.724,22.277-53.467,43.818-53.672
			c0.027,0,0.027,0,0.045,0c0.009,0,0.027,0,0.036,0c21.541,0.205,43.82,24.945,43.82,53.672c0,26.324-11.376,46.601-26.982,53.496
			c-0.123,0.054-9.058,3.3-9.058,3.3l4.376,84.215c9.607,2.365,19.596,3.753,29.93,3.753c13.942,0,27.292-2.374,39.814-6.571
			l3.882-75.052c-10.224-2.25-18.943-8.757-24.407-16.921c-6.771-10.143,5.21-99.9,5.21-99.9h7.795v84.229h7.742v-84.22h8.462
			v84.238h7.706v-84.238h8.782v84.238h7.729v-84.238h5.981c0,0,11.981,89.758,5.203,99.9c-5.411,8.084-14.05,14.574-24.146,16.875
			c-0.182,0.064-0.346,0.127-0.346,0.127l3.37,64.558c37.306-21.688,62.448-61.983,62.448-108.242
			C381.236,186.829,325.172,130.765,256.009,130.765z"/>
		<path fill="#006699" d="M188.371,223.722c0.448-1.824,1.053-3.562,1.08-3.595c0.194-0.683-0.168-1.381-0.912-1.825
			c-0.706-0.381-1.567-0.186-1.965,0.426c0,0-0.858,1.363-2.1,3.379c-1.01,1.737-2.505,4.51-3.525,7.963
			c-0.885,3.027-1.94,7.051-2.416,11.554c-0.203,2.365-0.251,4.501-0.178,6.698c0.178,2.506,0.558,4.65,1.283,7.102
			c2.459,6.994,4.355,13.764,11.193,20.444c2.162,2.219,4.381,3.731,5.985,4.847l0.566,0.4c0.347,0.225,0.676,0.434,1.003,0.625
			c1.346,0.706,2.247,0.96,2.412,0.996c0.669,0.18,1.358-0.145,1.645-0.688c0.266-0.571,0.071-1.289-0.486-1.742
			c0,0-0.779-0.677-1.78-1.948c-0.685-0.769-1.43-1.884-2.294-3.144c-0.609-0.89-1.332-1.895-2.003-2.874
			c-3.331-5.085-5.251-12.182-7.906-19.451c-0.521-1.577-0.948-3.619-1.108-5.356c-0.212-2.002-0.312-3.933-0.312-5.724
			c-0.078-4.159,0.108-7.729,0.472-10.625C187.441,227.918,187.768,225.468,188.371,223.722z"/>
		<path fill="#006699" d="M256.009,107.507c-81.874,0-148.502,66.616-148.502,148.493c0,81.859,66.628,148.492,148.502,148.492
			c81.869,0,148.484-66.633,148.484-148.492C404.493,174.123,337.878,107.507,256.009,107.507z M256.009,393.418
			c-75.778,0-137.431-61.648-137.431-137.418c0-75.778,61.652-137.431,137.431-137.431c75.77,0,137.426,61.652,137.426,137.431
			C393.438,331.77,331.778,393.418,256.009,393.418z"/>
	</g>
</g>
</svg>
