<?xml version="1.0" encoding="utf-8"?>
<!-- Generator: Adobe Illustrator 16.0.0, SVG Export Plug-In . SVG Version: 6.00 Build 0)  -->
<!DOCTYPE svg PUBLIC "-//W3C//DTD SVG 1.1//EN" "http://www.w3.org/Graphics/SVG/1.1/DTD/svg11.dtd">
<svg version="1.1" id="Capa_1" xmlns="http://www.w3.org/2000/svg" xmlns:xlink="http://www.w3.org/1999/xlink" x="0px" y="0px"
	 width="40px" height="40px" viewBox="236 236 40 40" enable-background="new 236 236 40 40" xml:space="preserve">
<g>
	<path fill="#006699" d="M272.489,246.442c-1.703-2.917-4.014-5.227-6.932-6.93c-2.917-1.702-6.103-2.554-9.558-2.554
		c-3.455,0-6.641,0.852-9.559,2.554c-2.917,1.703-5.227,4.013-6.93,6.93c-1.703,2.918-2.554,6.104-2.554,9.559
		c0,3.456,0.852,6.641,2.554,9.558s4.013,5.228,6.93,6.931c2.917,1.702,6.104,2.554,9.559,2.554c3.455,0,6.642-0.852,9.558-2.554
		c2.918-1.702,5.229-4.014,6.932-6.931c1.701-2.917,2.552-6.104,2.552-9.558S274.19,249.359,272.489,246.442z M268.348,253.1
		l-13.464,13.464c-0.314,0.313-0.694,0.472-1.14,0.472c-0.43,0-0.802-0.158-1.116-0.472l-8.976-8.977
		c-0.297-0.297-0.446-0.668-0.446-1.116c0-0.462,0.149-0.843,0.446-1.14l2.256-2.231c0.315-0.314,0.686-0.471,1.116-0.471
		s0.803,0.157,1.116,0.471l5.604,5.604l10.116-10.091c0.314-0.314,0.687-0.471,1.115-0.471c0.43,0,0.802,0.157,1.115,0.471
		l2.258,2.232c0.297,0.297,0.446,0.678,0.446,1.14C268.794,252.43,268.645,252.802,268.348,253.1z"/>
</g>
</svg>
