<?xml version="1.0" encoding="utf-8"?>
<!-- Generator: Adobe Illustrator 16.0.0, SVG Export Plug-In . SVG Version: 6.00 Build 0)  -->
<!DOCTYPE svg PUBLIC "-//W3C//DTD SVG 1.1//EN" "http://www.w3.org/Graphics/SVG/1.1/DTD/svg11.dtd">
<svg version="1.1" id="Capa_1" xmlns="http://www.w3.org/2000/svg" xmlns:xlink="http://www.w3.org/1999/xlink" x="0px" y="0px"
	 width="200px" height="200px" viewBox="156 156 200 200" enable-background="new 156 156 200 200" xml:space="preserve">
<g>
	<path fill="#006699" d="M355.462,201.928v60.218c0,0-12.887,2.538-15.543,2.871c-2.646,0.334-10.963,3.021-16.99-2.773
		c-9.296-8.91-42.323-41.755-42.323-41.755s-5.694-5.587-14.838-0.758c-8.393,4.424-20.835,10.907-26.032,13.432
		c-9.824,5.229-17.967-3.067-17.967-9.387c0-4.902,3.059-8.229,7.432-10.675c11.85-7.184,36.826-21.203,47.229-26.73
		c6.324-3.363,10.879-3.651,19.561,3.661c10.69,8.992,20.206,17.188,20.206,17.188s3.104,2.589,8.053,1.547
		C336.401,206.196,355.462,201.928,355.462,201.928z M224.006,303.959c1.6-4.11,1.064-8.705-2.002-11.858
		c-2.755-2.821-6.778-3.563-10.614-2.685c1.073-3.806,0.48-7.854-2.29-10.713c-2.764-2.813-6.779-3.571-10.615-2.684
		c1.065-3.798,0.475-7.848-2.298-10.696c-4.34-4.452-11.848-4.262-16.78,0.439c-4.906,4.708-8.048,13.238-3.669,18.256
		c4.371,4.997,9.394,1.957,13.223,1.085c-1.065,3.798-4.257,7.332-0.327,12.304c3.927,4.976,9.394,1.958,13.227,1.093
		c-1.069,3.784-4.121,7.673-0.342,12.284c3.814,4.625,10.06,2.16,14.186,0.879c-1.592,4.094-5,8.505-0.622,13.451
		c4.372,4.979,14.475,2.676,19.41-2.033c4.921-4.707,5.394-12.169,1.064-16.634C232.57,303.383,228.114,302.67,224.006,303.959z
		 M314.05,272.632c-35.673-35.675-18.895-18.889-38.092-38.127c0,0-5.77-5.744-13.375-2.408c-5.338,2.339-12.21,5.527-17.381,7.961
		c-5.682,2.98-9.771,3.902-11.691,3.89c-10.986-0.072-19.898-8.902-19.898-19.876c0-7.12,3.779-13.318,9.417-16.836
		c7.927-5.485,26.173-15.19,26.173-15.19s-5.559-7.044-17.735-7.044c-12.173,0-37.605,16.661-37.605,16.661s-7.215,4.622-17.5,0.459
		l-19.824-6.903v68.904c0,0,5.66,1.638,10.747,3.716c1.148-3.276,3.002-6.301,5.574-8.8c8.438-8.036,22.424-8.12,30.101-0.215
		c2.313,2.402,3.926,5.27,4.75,8.438c3.094,0.955,5.895,2.647,8.147,4.967c2.319,2.387,3.927,5.271,4.758,8.422
		c3.09,0.956,5.888,2.654,8.147,4.975c2.544,2.624,4.24,5.793,5.031,9.227c3.23,0.941,6.148,2.692,8.5,5.095
		c4.614,4.739,6.251,11.169,5.258,17.371c0.009,0,0.024,0,0.031,0.014c0.076,0.099,2.858,3.201,4.593,4.951
		c3.401,3.403,8.955,3.403,12.367,0c3.389-3.402,3.404-8.946,0-12.366c-0.122-0.121-12.271-12.829-11.293-13.814
		c0.97-0.979,16.447,15.127,16.735,15.422c3.398,3.396,8.947,3.396,12.359,0c3.405-3.403,3.397-8.947,0-12.359
		c-0.166-0.159-0.863-0.826-1.122-1.092c0,0-15.346-13.671-14.178-14.838c1.184-1.177,20.244,16.612,20.274,16.612
		c3.428,3.086,8.705,3.063,12.002-0.234c3.207-3.206,3.276-8.28,0.432-11.698c-0.059-0.183-14.526-15.301-13.397-16.438
		c1.146-1.152,15.46,13.587,15.491,13.619c3.388,3.396,8.946,3.396,12.358,0c3.396-3.398,3.396-8.947,0-12.374
		C314.155,272.69,314.095,272.66,314.05,272.632z"/>
</g>
</svg>
