<?xml version="1.0" encoding="utf-8"?>
<!-- Generator: Adobe Illustrator 16.0.0, SVG Export Plug-In . SVG Version: 6.00 Build 0)  -->
<!DOCTYPE svg PUBLIC "-//W3C//DTD SVG 1.1//EN" "http://www.w3.org/Graphics/SVG/1.1/DTD/svg11.dtd">
<svg version="1.1" id="Capa_1" xmlns="http://www.w3.org/2000/svg" xmlns:xlink="http://www.w3.org/1999/xlink" x="0px" y="0px"
	 width="300px" height="300px" viewBox="105.997 106 300 300" enable-background="new 105.997 106 300 300" xml:space="preserve">
<g>
	<g>
		<path fill="#006699" d="M172.337,171.835L172.337,171.835c0.086,0,0.445,0,0.53,0l0,0c16.538-0.15,29.903-13.6,29.903-30.174
			c0-16.576-13.365-30.025-29.903-30.174l0,0c-0.085,0-0.445,0-0.53,0l0,0c-16.54,0.148-29.903,13.599-29.903,30.174
			C142.434,158.235,155.797,171.685,172.337,171.835z"/>
		<path fill="#006699" d="M342.344,111.484c16.669,0,30.183,13.514,30.183,30.18c0,16.671-13.514,30.184-30.183,30.184
			c-16.668,0-30.182-13.513-30.182-30.184C312.162,124.998,325.676,111.484,342.344,111.484z"/>
		<path fill="#006699" d="M358.559,177.033c-2.748-1.535-5.695-2.698-8.688-3.432l-7.523,7.568l-7.291-7.65
			c-0.033,0.003-0.063,0.009-0.08,0.012c-3.851,0.917-12.251,5.295-12.846,5.667c-23.184,14.219-33.363,35.197-44.018,83.758
			c-0.954,4.351,0.676,8.629,3.828,11.341c1.094,7.375,0.495,12.892-1.861,14.55c-4.371,3.077-10.229-1.855-12.271-3.379
			c-2.301-1.787-4.995-3.092-7.788-3.76c-0.012-0.003-0.03-0.008-0.044-0.011l-4.382,4.599l-4.384-4.599
			c-0.015,0.003-0.032,0.008-0.046,0.011c-2.791,0.668-5.485,1.973-7.786,3.76c-2.044,1.523-7.903,6.456-12.271,3.379
			c-2.391-1.684-2.974-7.33-1.815-14.861c2.45-2.111,4.026-5.217,4.074-8.702c3.196-71.13-49.083-90.664-53.253-91.679l-7.515,7.565
			l-7.517-7.565c-4.171,1.016-56.444,20.549-53.251,91.679c0.091,6.41,5.319,11.553,11.714,11.553c0.06,0,0.109,0,0.171-0.005
			c6.467-0.097,11.641-5.397,11.554-11.875c-0.181-12.734,0.834-22.704,2.708-30.681c0,0,1.87-7.07,3.748-8.014v17.983
			c-3.3,14.297-17.084,74.507-17.128,83.493c-0.02,4.396,8.321,7.604,19.998,9.502v54.918c0,7.642,5.014,13.838,12.655,13.838
			c7.653,0,14-6.196,14-13.838l-0.149-52.922c0.103,0,0.206,0,0.31-0.004c0.101,0.004,2.136,0.004,2.239,0.004v52.922
			c0,7.642,6.195,13.838,13.848,13.838c7.642,0,13.103-6.196,13.103-13.838V337.24c11.677-1.898,20.017-5.105,19.997-9.502
			c-0.045-8.986-13.826-69.196-17.131-83.493v-17.983c1.878,0.943,3.752,8.014,3.752,8.014c1.87,7.977,2.888,17.946,2.707,30.681
			c-0.061,4.461,2.374,8.361,6.01,10.392c-1.13,11.216,1.244,19.219,7.11,23.803c3.711,2.901,8.033,3.813,11.989,3.813
			c0.671,0,1.329-0.03,1.973-0.077c-0.017,0.682-0.026,1.381-0.026,2.117v27.803c0,1.895,0.62,4.959,1.276,6.581
			c-0.057,0.367-0.084,58.266-0.084,58.266c0,4.607,3.733,8.347,8.346,8.347c4.607,0,8.337-3.738,8.337-8.347v-48.848h0.283v0.003
			h0.451h0.449v-0.003h0.283v48.848c0,4.608,3.728,8.347,8.339,8.347s8.345-3.739,8.345-8.347c0,0-0.03-57.898-0.082-58.266
			c0.653-1.622,1.274-4.687,1.274-6.581v-27.803c0-0.736-0.01-1.436-0.028-2.117c0.646,0.047,1.303,0.077,1.971,0.077
			c3.959,0,8.281-0.909,11.993-3.813c5.847-4.57,8.229-12.543,7.117-23.707c0.721-0.34,1.418-0.74,2.061-1.238
			c1.789-1.583,3.124-3.714,3.68-6.229c3.484-15.88,6.805-27.602,10.444-38.674v37.172c0,3.579,0.801,7.354,2.167,10.354
			l-0.078,115.326c0,7.646,6.197,13.845,13.849,13.845c7.644,0,13.843-6.202,13.843-13.845v-99.093l1.967,0.008v99.089
			c0,7.642,6.201,13.841,13.848,13.841c7.647,0,13.851-6.199,13.851-13.841l-0.03-115.354c1.489-3.116,2.363-6.57,2.363-10.333
			V229.45c0,0,5.843,9.73,3.113,33.443c-0.654,6.44,4.049,12.182,10.491,12.83c0.396,0.035,0.783,0.056,1.179,0.056
			c5.948,0,11.037-4.506,11.645-10.543C404.951,212.511,377.081,187.181,358.559,177.033z M342.344,255.591
			c-1.945,0-3.518-1.574-3.518-3.515c0-1.942,1.574-3.518,3.518-3.518s3.517,1.575,3.517,3.518
			C345.862,254.017,344.288,255.591,342.344,255.591z M342.344,244.56c-1.945,0-3.518-1.576-3.518-3.519s1.574-3.519,3.518-3.519
			s3.517,1.576,3.517,3.519C345.862,242.983,344.288,244.56,342.344,244.56z M342.344,233.977c-1.945,0-3.518-1.574-3.518-3.518
			s1.574-3.519,3.518-3.519s3.517,1.575,3.517,3.519C345.862,232.402,344.288,233.977,342.344,233.977z M342.924,220.265
			l-5.438-30.102l4.863-4.783l5.09,4.703L342.924,220.265z"/>
		<path fill="#006699" d="M255.001,280.668c0.195,0.006,0.391,0.014,0.587,0.014c0.003,0,0.007,0,0.009,0c0.003,0,0.003,0,0.006,0
			c0.2,0,0.394-0.008,0.588-0.014c9.769-0.318,17.588-8.33,17.588-18.178c0-9.842-7.819-17.817-17.588-18.132l0,0
			c-0.194-0.006-0.388-0.015-0.588-0.015c0,0-0.003,0-0.006,0c-0.002,0-0.006,0-0.009,0c-0.196,0-0.392,0.009-0.587,0.015l0,0
			c-9.767,0.314-17.588,8.291-17.588,18.132C237.413,272.338,245.231,280.35,255.001,280.668z"/>
	</g>
</g>
</svg>
