<?xml version="1.0" encoding="utf-8"?>
<!-- Generator: Adobe Illustrator 16.0.0, SVG Export Plug-In . SVG Version: 6.00 Build 0)  -->
<!DOCTYPE svg PUBLIC "-//W3C//DTD SVG 1.1//EN" "http://www.w3.org/Graphics/SVG/1.1/DTD/svg11.dtd">
<svg version="1.1" id="Capa_1" xmlns="http://www.w3.org/2000/svg" xmlns:xlink="http://www.w3.org/1999/xlink" x="0px" y="0px"
	 width="200px" height="200px" viewBox="156 156 200 200" enable-background="new 156 156 200 200" xml:space="preserve">
<g>
	<g>
		<path fill="#006699" d="M199.891,197.716L199.891,197.716c0.057,0,0.298,0,0.355,0l0,0c11.092-0.101,20.055-9.12,20.055-20.236
			c0-11.117-8.963-20.136-20.055-20.236v0c-0.057,0-0.299,0-0.355,0v0c-11.093,0.1-20.055,9.12-20.055,20.236
			C179.836,188.596,188.798,197.615,199.891,197.716z"/>
		<circle fill="#006699" cx="313.905" cy="177.483" r="20.241"/>
		<path fill="#006699" d="M324.779,201.202c-1.842-1.029-3.819-1.809-5.826-2.301l-5.046,5.076l-4.889-5.132
			c-0.022,0.003-0.042,0.006-0.054,0.009c-2.582,0.615-8.216,3.551-8.614,3.801c-15.549,9.535-22.375,23.604-29.521,56.171
			c-0.639,2.917,0.453,5.788,2.568,7.606c0.733,4.946,0.332,8.645-1.249,9.757c-2.931,2.064-6.86-1.243-8.23-2.265
			c-1.543-1.2-3.35-2.075-5.222-2.522c-0.009-0.002-0.021-0.005-0.03-0.007l-2.94,3.084l-2.939-3.084
			c-0.009,0.002-0.021,0.005-0.03,0.007c-1.872,0.447-3.679,1.322-5.222,2.522c-1.371,1.021-5.3,4.329-8.231,2.265
			c-1.603-1.128-1.993-4.915-1.217-9.966c1.643-1.417,2.7-3.498,2.733-5.836c2.143-47.704-32.917-60.804-35.714-61.484l-5.039,5.074
			l-5.041-5.074c-2.797,0.681-37.855,13.781-35.713,61.484c0.06,4.299,3.567,7.748,7.856,7.748c0.039,0,0.073,0,0.114-0.004
			c4.337-0.065,7.807-3.619,7.748-7.964c-0.121-8.54,0.56-15.226,1.816-20.575c0,0,1.255-4.743,2.515-5.375v12.06
			c-2.214,9.589-11.457,49.968-11.488,55.995c-0.013,2.949,5.581,5.099,13.412,6.373v36.83c0,5.125,3.363,9.28,8.488,9.28
			c5.132,0,9.388-4.156,9.388-9.28l-0.1-35.492c0.069,0,0.138-0.001,0.207-0.002c0.068,0.001,1.433,0.002,1.502,0.002v35.492
			c0,5.124,4.155,9.28,9.287,9.28c5.125,0,8.787-4.155,8.787-9.28v-36.83c7.832-1.274,13.425-3.424,13.412-6.373
			c-0.031-6.027-9.273-46.406-11.489-55.995v-12.06c1.26,0.632,2.516,5.375,2.516,5.375c1.254,5.349,1.936,12.035,1.816,20.575
			c-0.042,2.992,1.592,5.609,4.03,6.97c-0.758,7.521,0.835,12.888,4.768,15.962c2.489,1.947,5.388,2.558,8.042,2.558
			c0.449,0,0.89-0.02,1.322-0.051c-0.011,0.456-0.018,0.925-0.018,1.419v18.646c0,1.271,0.416,3.326,0.855,4.414
			c-0.036,0.246-0.055,39.075-0.055,39.075c0,3.09,2.504,5.598,5.596,5.598c3.09,0,5.592-2.507,5.592-5.598V316.4l0.19,0.001v0.002
			l0.302-0.001l0.302,0.001v-0.002l0.19-0.001v32.76c0,3.091,2.5,5.598,5.592,5.598s5.596-2.508,5.596-5.598
			c0,0-0.019-38.829-0.054-39.075c0.438-1.088,0.854-3.143,0.854-4.414v-18.646c0-0.494-0.007-0.963-0.018-1.419
			c0.432,0.031,0.872,0.051,1.321,0.051c2.655,0,5.553-0.61,8.043-2.558c3.921-3.065,5.518-8.411,4.773-15.899
			c0.484-0.227,0.951-0.496,1.382-0.83c1.199-1.062,2.095-2.49,2.468-4.176c2.337-10.651,4.564-18.512,7.005-25.937v24.929
			c0,2.4,0.536,4.932,1.453,6.943l-0.053,77.344c0,5.126,4.156,9.284,9.287,9.284c5.127,0,9.284-4.159,9.284-9.284v-66.458
			l1.319,0.007v66.452c0,5.126,4.159,9.283,9.287,9.283c5.129,0,9.289-4.158,9.289-9.283l-0.021-77.361
			c0.999-2.089,1.585-4.406,1.585-6.929v-24.828c0,0,3.918,6.525,2.088,22.428c-0.438,4.319,2.716,8.169,7.036,8.604
			c0.265,0.024,0.526,0.038,0.791,0.038c3.989,0,7.402-3.022,7.809-7.07C355.893,224.995,337.201,208.008,324.779,201.202z
			 M313.905,253.887c-1.304,0-2.359-1.056-2.359-2.357c0-1.303,1.056-2.36,2.359-2.36s2.359,1.057,2.359,2.36
			C316.265,252.831,315.209,253.887,313.905,253.887z M313.905,246.488c-1.304,0-2.359-1.057-2.359-2.359
			c0-1.303,1.056-2.359,2.359-2.359s2.359,1.056,2.359,2.359C316.265,245.432,315.209,246.488,313.905,246.488z M313.905,239.39
			c-1.304,0-2.359-1.055-2.359-2.358s1.056-2.36,2.359-2.36s2.359,1.056,2.359,2.36C316.265,238.335,315.209,239.39,313.905,239.39z
			 M314.294,230.196l-3.648-20.188l3.262-3.208l3.414,3.154L314.294,230.196z"/>
		<path fill="#006699" d="M255.329,270.704c0.131,0.004,0.262,0.01,0.394,0.01c0.001,0,0.003,0,0.005,0s0.003,0,0.005,0
			c0.133,0,0.263-0.006,0.394-0.01c6.551-0.213,11.795-5.586,11.795-12.191c0-6.6-5.244-11.948-11.795-12.16v0
			c-0.131-0.003-0.261-0.009-0.394-0.009c-0.001,0-0.003,0-0.005,0s-0.003,0-0.005,0c-0.132,0-0.263,0.006-0.394,0.009v0
			c-6.55,0.212-11.795,5.561-11.795,12.16C243.534,265.118,248.778,270.491,255.329,270.704z"/>
	</g>
</g>
</svg>
