<?xml version="1.0" encoding="utf-8"?>
<!-- Generator: Adobe Illustrator 16.0.0, SVG Export Plug-In . SVG Version: 6.00 Build 0)  -->
<!DOCTYPE svg PUBLIC "-//W3C//DTD SVG 1.1//EN" "http://www.w3.org/Graphics/SVG/1.1/DTD/svg11.dtd">
<svg version="1.1" id="Capa_1" xmlns="http://www.w3.org/2000/svg" xmlns:xlink="http://www.w3.org/1999/xlink" x="0px" y="0px"
	 width="300px" height="300px" viewBox="106 106 300 300" enable-background="new 106 106 300 300" xml:space="preserve">
<g>
	<g>
		<path fill="#006699" d="M217.191,315.684c0.553,0.245,1.19,0.452,1.893,0.612c37.234,8.68,55.718,14.263,64.862,17.727
			c5.429,2.061,12.275,1.935,16.567-1.972l27.757-25.238c4.295-3.906,4.224-10.231,0.902-14.994
			c-11.236-16.11-13.654-38.509-14.027-51.519c-0.029-0.924-0.161-1.703-0.347-2.417c2.494-25.905-4.638-54.278-22.012-78.964
			c-34.66-49.261-96.926-65.161-139.068-35.507c-42.146,29.653-48.205,93.626-13.539,142.896
			C159.867,294.279,188.447,311.457,217.191,315.684z M219.981,132.053c45.31,14.895,62.958,53.896,72.836,97.515
			c3.41,15.061-19.973,20.188-23.381,5.136c-7.921-34.972-19.888-67.727-56.818-79.867
			C197.968,150.021,205.279,127.224,219.981,132.053z"/>
		<path fill="#006699" d="M363.546,320.018c-5.738,0.047-11.192,1.666-15.922,4.663l-9.6-9.445l-31.137,31.657l9.208,9.063
			c-3.463,5.061-5.329,11.052-5.281,17.282c0.138,16.832,13.944,30.413,30.777,30.277c14.143-0.117,24.854-12.309,28.112-25.543
			c13.487-3.251,24.736-13.233,24.617-27.682C394.187,333.46,380.38,319.877,363.546,320.018z M363.886,365.295l-9.01-2.179
			l1.19,9.996c-0.065,8.004-6.614,14.569-14.597,14.63c-8.137,0.068-14.812-6.5-14.877-14.636
			c-0.039-4.376,1.942-8.533,5.432-11.428l6.729-5.567l-9.56-9.404l9.017-9.177l9.241,9.092l5.52-6.019
			c2.825-3.079,6.633-4.791,10.711-4.822c8.133-0.07,14.813,6.499,14.879,14.632C378.622,358.561,372.059,365.229,363.886,365.295z"
			/>
	</g>
</g>
</svg>
