<?xml version="1.0" encoding="utf-8"?>
<!-- Generator: Adobe Illustrator 16.0.0, SVG Export Plug-In . SVG Version: 6.00 Build 0)  -->
<!DOCTYPE svg PUBLIC "-//W3C//DTD SVG 1.1//EN" "http://www.w3.org/Graphics/SVG/1.1/DTD/svg11.dtd">
<svg version="1.1" id="Capa_1" xmlns="http://www.w3.org/2000/svg" xmlns:xlink="http://www.w3.org/1999/xlink" x="0px" y="0px"
	 width="200px" height="200px" viewBox="156 156 200 200" enable-background="new 156 156 200 200" xml:space="preserve">
<g>
	<g>
		<path fill="#006699" d="M230.658,294.973c0.362,0.16,0.778,0.294,1.237,0.399c24.313,5.668,36.382,9.313,42.353,11.576
			c3.545,1.345,8.016,1.263,10.819-1.288l18.125-16.48c2.804-2.551,2.757-6.681,0.588-9.791c-7.337-10.52-8.916-25.146-9.159-33.641
			c-0.02-0.603-0.106-1.112-0.226-1.578c1.629-16.916-3.029-35.444-14.373-51.563c-22.633-32.166-63.291-42.548-90.81-23.185
			c-27.52,19.363-31.477,61.137-8.841,93.308C193.226,280.996,211.889,292.213,230.658,294.973z M232.48,175.064
			c29.586,9.726,41.111,35.194,47.561,63.676c2.226,9.834-13.042,13.183-15.268,3.354c-5.171-22.836-12.986-44.225-37.101-52.152
			C218.106,186.797,222.88,171.911,232.48,175.064z"/>
		<path fill="#006699" d="M326.226,297.803c-3.747,0.03-7.309,1.087-10.397,3.044l-6.268-6.168l-20.332,20.673l6.012,5.917
			c-2.261,3.305-3.479,7.218-3.448,11.285c0.09,10.992,9.106,19.86,20.097,19.771c9.235-0.076,16.229-8.037,18.357-16.679
			c8.807-2.122,16.152-8.641,16.074-18.075C346.233,306.58,337.218,297.711,326.226,297.803z M326.447,327.368l-5.883-1.422
			l0.778,6.526c-0.043,5.227-4.32,9.514-9.531,9.554c-5.314,0.044-9.672-4.245-9.716-9.557c-0.025-2.857,1.269-5.573,3.548-7.462
			l4.393-3.636l-6.242-6.14l5.888-5.993l6.034,5.937l3.604-3.93c1.845-2.01,4.331-3.129,6.994-3.15
			c5.311-0.045,9.672,4.245,9.716,9.556C336.07,322.97,331.784,327.324,326.447,327.368z"/>
	</g>
</g>
</svg>
