<?xml version="1.0" encoding="utf-8"?>
<!-- Generator: Adobe Illustrator 16.0.0, SVG Export Plug-In . SVG Version: 6.00 Build 0)  -->
<!DOCTYPE svg PUBLIC "-//W3C//DTD SVG 1.1//EN" "http://www.w3.org/Graphics/SVG/1.1/DTD/svg11.dtd">
<svg version="1.1" id="Capa_1" xmlns="http://www.w3.org/2000/svg" xmlns:xlink="http://www.w3.org/1999/xlink" x="0px" y="0px"
	 width="200px" height="200px" viewBox="156 156 200 200" enable-background="new 156 156 200 200" xml:space="preserve">
<g>
	<g id="Layer_5_6_">
		<g>
			<path fill="#006699" d="M174.582,297.488c-14.107,0-14.107,8.538-14.107,12.971c0,29.921,31.246,32.668,69.791,32.668h51.467
				c38.543,0,69.79-5.222,69.79-32.668c0-4.433-1.351-12.971-13.973-12.971H174.582L174.582,297.488z"/>
			<g>
				<path fill="#006699" d="M355.236,274.561c0,4.9-4.008,8.91-8.909,8.91H165.672c-4.9,0-8.909-4.01-8.909-8.91v-6.681
					c0-4.899,4.009-8.909,8.909-8.909h180.655c4.901,0,8.909,4.01,8.909,8.909V274.561L355.236,274.561z"/>
			</g>
			<path fill="#006699" d="M259.46,168.873h-6.92c-38.544,0-92.064,23.822-92.064,62.366c0,4.433,1.352,12.97,13.973,12.97h162.97
				c14.106,0,14.106-8.538,14.106-12.97C351.523,192.695,298.005,168.873,259.46,168.873z M214.183,218.322
				c-3.683,6.143-10.027,9.108-14.169,6.625c-4.143-2.484-4.515-9.477-0.832-15.62c3.683-6.142,10.027-9.108,14.169-6.624
				C217.493,205.187,217.866,212.18,214.183,218.322z M256,227.367c-4.613,0-8.353-6.063-8.353-13.542s3.74-13.542,8.353-13.542
				c4.613,0,8.354,6.063,8.354,13.542S260.613,227.367,256,227.367z M311.987,224.947c-4.143,2.484-10.486-0.481-14.169-6.625
				c-3.684-6.142-3.312-13.135,0.83-15.619c4.143-2.485,10.486,0.481,14.17,6.624C316.502,215.47,316.13,222.462,311.987,224.947z"
				/>
		</g>
	</g>
</g>
</svg>
