<?xml version="1.0" encoding="utf-8"?>
<!-- Generator: Adobe Illustrator 16.0.0, SVG Export Plug-In . SVG Version: 6.00 Build 0)  -->
<!DOCTYPE svg PUBLIC "-//W3C//DTD SVG 1.1//EN" "http://www.w3.org/Graphics/SVG/1.1/DTD/svg11.dtd">
<svg version="1.1" id="Capa_1" xmlns="http://www.w3.org/2000/svg" xmlns:xlink="http://www.w3.org/1999/xlink" x="0px" y="0px"
	 width="300px" height="300px" viewBox="106 106 300 300" enable-background="new 106 106 300 300" xml:space="preserve">
<g>
	<g id="Layer_5_6_">
		<g>
			<path fill="#006699" d="M134.79,338.056c-21.002,0-21.002,12.71-21.002,19.311c0,44.544,46.518,48.634,103.9,48.634h76.62
				c57.382,0,103.9-7.774,103.9-48.634c0-6.601-2.013-19.311-20.803-19.311H134.79L134.79,338.056z"/>
			<g>
				<path fill="#006699" d="M403.736,303.923c0,7.295-5.968,13.265-13.264,13.265H121.525c-7.295,0-13.262-5.97-13.262-13.265
					v-9.946c0-7.294,5.967-13.263,13.262-13.263h268.947c7.296,0,13.264,5.969,13.264,13.263V303.923L403.736,303.923z"/>
			</g>
			<path fill="#006699" d="M261.151,146.582h-10.303c-57.381,0-137.058,35.465-137.058,92.847c0,6.6,2.013,19.309,20.802,19.309
				h242.618c21.001,0,21.001-12.711,21.001-19.309C398.209,182.047,318.534,146.582,261.151,146.582z M193.746,220.199
				c-5.483,9.145-14.928,13.559-21.095,9.862c-6.167-3.698-6.721-14.107-1.238-23.254c5.483-9.144,14.928-13.56,21.095-9.861
				C198.674,200.645,199.229,211.055,193.746,220.199z M256,233.664c-6.868,0-12.437-9.025-12.437-20.16s5.568-20.16,12.437-20.16
				s12.437,9.025,12.437,20.16S262.868,233.664,256,233.664z M339.35,230.062c-6.168,3.699-15.611-0.717-21.094-9.862
				c-5.484-9.145-4.931-19.555,1.236-23.253c6.167-3.7,15.609,0.715,21.095,9.861C346.071,215.954,345.518,226.361,339.35,230.062z"
				/>
		</g>
	</g>
</g>
</svg>
