<?xml version="1.0" encoding="utf-8"?>
<!-- Generator: Adobe Illustrator 16.0.0, SVG Export Plug-In . SVG Version: 6.00 Build 0)  -->
<!DOCTYPE svg PUBLIC "-//W3C//DTD SVG 1.1//EN" "http://www.w3.org/Graphics/SVG/1.1/DTD/svg11.dtd">
<svg version="1.1" id="Layer_1" xmlns="http://www.w3.org/2000/svg" xmlns:xlink="http://www.w3.org/1999/xlink" x="0px" y="0px"
	 width="300px" height="300px" viewBox="-50 -29.275 300 300" enable-background="new -50 -29.275 300 300" xml:space="preserve">
<path fill="#006699" d="M243.346,165.333c-4.413-6.339-11.662-10.12-19.381-10.12h-4.352c-1.136-1.083-2.358-2.087-3.687-2.982
	c3.649-3.897,5.808-8.544,5.808-13.553c0-11.115-10.531-20.41-24.918-23.516c-0.975-8.042-6.829-14.255-13.984-14.255
	c-1.813,0-3.534,0.434-5.127,1.164c0.01-0.396,0.097-0.767,0.097-1.164c0-16.04-10.658-29.039-23.803-29.039
	c-8.661,0-16.166,5.705-20.33,14.149c-5.667-3.117-12.284-5-19.44-5c-11.343,0-21.375,4.621-28.178,11.746
	c-9.591-19.356-23.195-39-32.483-51.467c-3.311-4.438-9.031-6.729-14.459-5.808c-5.563,0.944-10.06,4.868-11.75,10.26
	c-2.445,7.826-5.365,18.004-7.985,28.956C9.1,67.708-0.938,61.644-8.696,57.186c-4.774-2.735-10.957-2.569-15.585,0.446
	c-4.719,3.084-7.277,8.479-6.677,14.071c2.341,22,8.095,60.508,20.424,83.512h-13.428c-7.728,0-14.974,3.786-19.383,10.125
	c-4.412,6.34-5.444,14.445-2.755,21.696c6.387,17.21,20.25,49.094,41.309,69.229c9.761,9.325,22.573,14.46,36.068,14.46h137.481
	c13.519,0,26.338-5.149,36.092-14.496c21.028-20.134,34.87-51.995,41.251-69.198C248.79,179.778,247.76,171.667,243.346,165.333z
	 M42.174,53.595c9.574,13.051,27.423,39.722,35.221,60.619c-4.194,0.395-8.791,1.667-12.399,3.494
	c-0.709-1.168-1.257-2.353-2.016-3.518c-6.386-9.797-17.268-19.771-29.13-28.924C35.985,75.456,38.723,64.88,42.174,53.595z
	 M-14.245,73.01c16.828,9.832,51.185,31.4,63.423,50.18c1.24,1.903,2.107,3.758,3.171,5.641c-4.085,5.73-6.641,12.728-7.065,20.437
	L20.46,111.184c-2.494-3.823-7.595-4.869-11.401-2.401c-3.809,2.488-4.887,7.586-2.404,11.399l22.837,35.029H8.879
	c-0.944-1.301-1.908-2.502-2.823-3.909C-6.184,132.534-12.046,92.386-14.245,73.01z M225.51,179.394
	c-4.612,12.419-17.33,43.234-35.852,60.971c-5.65,5.411-13.07,8.393-20.899,8.393H31.275c-7.819,0-15.235-2.979-20.888-8.373
	c-18.546-17.733-31.281-48.563-35.894-60.99c-0.185-0.504-0.111-1.069,0.199-1.515c0.307-0.438,0.81-0.702,1.347-0.702h247.926
	c0.538,0,1.046,0.265,1.356,0.709C225.625,178.328,225.696,178.89,225.51,179.394z"/>
</svg>
