<?xml version="1.0" encoding="utf-8"?>
<!-- Generator: Adobe Illustrator 16.0.0, SVG Export Plug-In . SVG Version: 6.00 Build 0)  -->
<!DOCTYPE svg PUBLIC "-//W3C//DTD SVG 1.1//EN" "http://www.w3.org/Graphics/SVG/1.1/DTD/svg11.dtd">
<svg version="1.1" id="Layer_1" xmlns="http://www.w3.org/2000/svg" xmlns:xlink="http://www.w3.org/1999/xlink" x="0px" y="0px"
	 width="200px" height="200px" viewBox="156 156 200 200" enable-background="new 156 156 200 200" xml:space="preserve">
<path fill="#006699" d="M352.914,277.226c-2.972-4.269-7.853-6.815-13.052-6.815h-2.929c-0.766-0.729-1.589-1.406-2.484-2.009
	c2.458-2.624,3.911-5.753,3.911-9.126c0-7.486-7.091-13.745-16.78-15.836c-0.656-5.417-4.6-9.6-9.418-9.6
	c-1.221,0-2.38,0.292-3.452,0.784c0.006-0.267,0.064-0.517,0.064-0.784c0-10.802-7.177-19.556-16.028-19.556
	c-5.833,0-10.886,3.842-13.692,9.528c-3.816-2.099-8.272-3.366-13.091-3.366c-7.639,0-14.394,3.111-18.977,7.909
	c-6.459-13.034-15.62-26.263-21.875-34.659c-2.229-2.99-6.082-4.532-9.737-3.912c-3.746,0.636-6.775,3.279-7.913,6.909
	c-1.646,5.271-3.613,12.125-5.378,19.501c-6.917-4.712-13.677-8.795-18.902-11.798c-3.214-1.842-7.378-1.73-10.495,0.301
	c-3.178,2.076-4.901,5.709-4.497,9.476c1.576,14.816,5.451,40.748,13.754,56.239h-9.043c-5.204,0-10.083,2.55-13.052,6.818
	c-2.972,4.27-3.666,9.729-1.856,14.612c4.301,11.59,13.637,33.06,27.819,46.62c6.573,6.28,15.201,9.737,24.288,9.737h92.585
	c9.104,0,17.737-3.466,24.305-9.761c14.161-13.559,23.483-35.015,27.78-46.601C356.58,286.954,355.887,281.491,352.914,277.226z
	 M217.439,201.979c6.448,8.789,18.468,26.75,23.719,40.822c-2.824,0.265-5.92,1.122-8.35,2.354c-0.477-0.788-0.846-1.585-1.357-2.37
	c-4.3-6.597-11.629-13.314-19.617-19.478C213.271,216.7,215.115,209.578,217.439,201.979z M179.445,215.053
	c11.333,6.621,34.469,21.146,42.711,33.793c0.835,1.281,1.419,2.53,2.136,3.799c-2.751,3.858-4.471,8.57-4.758,13.761
	l-16.718-25.646c-1.679-2.575-5.114-3.279-7.678-1.618c-2.564,1.676-3.29,5.11-1.618,7.678l15.379,23.59h-13.882
	c-0.635-0.877-1.285-1.686-1.901-2.633C184.874,255.138,180.926,228.102,179.445,215.053z M340.902,286.695
	c-3.105,8.363-11.67,29.115-24.143,41.059c-3.805,3.644-8.801,5.652-14.074,5.652H210.1c-5.266,0-10.26-2.005-14.067-5.638
	c-12.489-11.943-21.065-32.703-24.171-41.073c-0.126-0.34-0.076-0.72,0.133-1.02c0.207-0.295,0.546-0.473,0.907-0.473h166.961
	c0.363,0,0.704,0.178,0.914,0.478C340.98,285.976,341.028,286.355,340.902,286.695z"/>
</svg>
