<?xml version="1.0" encoding="utf-8"?>
<!-- Generator: Adobe Illustrator 16.0.0, SVG Export Plug-In . SVG Version: 6.00 Build 0)  -->
<!DOCTYPE svg PUBLIC "-//W3C//DTD SVG 1.1//EN" "http://www.w3.org/Graphics/SVG/1.1/DTD/svg11.dtd">
<svg version="1.1" id="truck" xmlns="http://www.w3.org/2000/svg" xmlns:xlink="http://www.w3.org/1999/xlink" x="0px" y="0px"
	 width="300px" height="300px" viewBox="-50 -50 300 300" enable-background="new -50 -50 300 300" xml:space="preserve">
<path fill="#016699" d="M-36.326,200.545l-0.185-136.713c0,0-0.832-6.097,5.266-6.19l198.51,0.093l26.788,73.714l42.677,24.387
	v44.709h4.619c0,0,3.978-0.185,3.978,8.499c0,8.683,0.271,14.04-4.717,13.855l-19.768,0.005c0,0-2.587-35.291-34.548-35.291
	c-38.982,0-37.319,35.291-37.319,35.291H50.875c0,0,2.771-33.998-34.363-34.553c-37.134-0.554-37.134,34.553-37.134,34.553h-20.322
	c0,0-4.386,0.18-4.386-9.981S-43.347,200.915-36.326,200.545z M-1.224,107.063v46.557h104.937L-1.224,107.063z M-13.295,92.283
	c0,0,2.709,8.375,9.977,8.129c7.267-0.247,9.977-9.115,9.977-9.115V72.331h-19.953V92.283z M41.637,72.331H21.685v19.953
	 M59.62,92.283c0,0,2.709,8.375,9.976,8.129c7.268-0.247,9.977-9.115,9.977-9.115V72.331H59.62V92.283z M114.551,72.331H94.598
	v19.953 M137.706,72.331v54.687h33.255l-19.953-54.687H137.706z M211.358,222.904c0,14.964-12.132,27.096-27.096,27.096
	c-14.965,0-27.096-12.132-27.096-27.096c0-14.965,12.131-27.096,27.096-27.096C199.227,195.809,211.358,207.939,211.358,222.904z
	 M184.263,209.959c-7.149,0-12.945,5.796-12.945,12.945c0,7.148,5.796,12.945,12.945,12.945c7.148,0,12.945-5.797,12.945-12.945
	C197.208,215.755,191.411,209.959,184.263,209.959z M42.375,222.904c0,14.964-12.131,27.096-27.096,27.096
	c-14.965,0-27.096-12.132-27.096-27.096c0-14.965,12.131-27.096,27.096-27.096C30.244,195.809,42.375,207.939,42.375,222.904z
	 M15.279,209.959c-7.149,0-12.945,5.796-12.945,12.945c0,7.148,5.796,12.945,12.945,12.945c7.148,0,12.945-5.797,12.945-12.945
	C28.225,215.755,22.428,209.959,15.279,209.959z"/>
</svg>
