<?xml version="1.0" encoding="utf-8"?>
<!-- Generator: Adobe Illustrator 16.0.0, SVG Export Plug-In . SVG Version: 6.00 Build 0)  -->
<!DOCTYPE svg PUBLIC "-//W3C//DTD SVG 1.1//EN" "http://www.w3.org/Graphics/SVG/1.1/DTD/svg11.dtd">
<svg version="1.1" id="Capa_1" xmlns="http://www.w3.org/2000/svg" xmlns:xlink="http://www.w3.org/1999/xlink" x="0px" y="0px"
	 width="200px" height="200px" viewBox="156 156 200 200" enable-background="new 156 156 200 200" xml:space="preserve">
<g>
	<g id="b71_hamburguer">
		<path fill="#006699" d="M155.8,281.838h200.396c0,17.492-44.861,40.08-100.198,40.08C200.662,321.918,155.8,299.33,155.8,281.838z
			"/>
		<path fill="#006699" d="M356.195,230.165H155.8c0-17.463,44.862-40.07,100.198-40.07
			C311.334,190.094,356.195,212.701,356.195,230.165z"/>
		<path fill="#006699" d="M342.848,240.186H169.147c-7.37,0-13.347,6.984-13.347,15.584c0,8.619,5.977,15.603,13.347,15.603h173.701
			c7.366,0,13.353-6.984,13.353-15.603C356.195,247.17,350.214,240.186,342.848,240.186z M326.937,267.141
			c-1.73,0.419-3.407,0.612-4.998,0.612c-6.537,0-11.844-3.408-15.825-10.186c-0.844-1.46-4.931-3.287-22.66,0.921l-1.667,0.396
			c-0.998,0.227-2.271,0.665-3.702,1.166c-6.382,2.223-17.049,5.925-23.986-2.024c-4.883-5.605-18.832-1.253-23.334,0.704
			l-23.682,8.687l-0.93-0.482c-0.675-0.348-16.5-8.585-25.566-14.943c-7.062-4.941-15.483,5.639-15.565,5.75l-4-4.29
			c0.467-0.583,11.573-14.456,22.347-6.893c7.558,5.312,20.496,12.219,24.063,14.099l21.58-7.91
			c1.967-0.873,20.655-8.667,28.887,0.747c4.656,5.335,12.745,2.526,18.641,0.477c1.644-0.564,3.085-1.055,4.222-1.32l1.62-0.371
			c11.568-2.733,24.227-5.1,28.213,1.696c3.701,6.324,8.561,8.532,15.284,6.955c9.322-2.183,22.371-6.478,24.646-7.75l2.323,5.727
			C349.717,260.647,335.671,265.097,326.937,267.141z"/>
	</g>
	<g id="Capa_1_117_">
	</g>
</g>
</svg>
