<?xml version="1.0" encoding="utf-8"?>
<!-- Generator: Adobe Illustrator 16.0.0, SVG Export Plug-In . SVG Version: 6.00 Build 0)  -->
<!DOCTYPE svg PUBLIC "-//W3C//DTD SVG 1.1//EN" "http://www.w3.org/Graphics/SVG/1.1/DTD/svg11.dtd">
<svg version="1.1" id="Capa_1" xmlns="http://www.w3.org/2000/svg" xmlns:xlink="http://www.w3.org/1999/xlink" x="0px" y="0px"
	 width="200px" height="200px" viewBox="156 156 200 200" enable-background="new 156 156 200 200" xml:space="preserve">
<g>
	<g id="b54_pizza">
		<path fill="#006699" d="M234.485,159.406c-24.67,5.48-45.871,20.123-59.83,40.231c16.225,10.023,40.4,25.498,76.647,49.292
			L234.485,159.406z M212.976,180.222c3.051,0,5.529,2.478,5.529,5.533c0,3.056-2.483,5.529-5.529,5.529s-5.519-2.478-5.519-5.529
			C207.452,182.7,209.926,180.222,212.976,180.222z M220.06,208.318c-7.213,0-13.05-1.862-13.05-4.148
			c0-2.295,5.836-4.152,13.05-4.152c7.203,0,13.04,1.857,13.04,4.152C233.099,206.451,227.267,208.318,220.06,208.318z"/>
		<path fill="#006699" d="M256.003,157c-5.105,0-10.085,0.491-14.984,1.246l19.685,104.819l-6.529-4.296
			c-24.549-16.158-58.66-38.273-83.09-53.479c-8.882,14.835-14.088,32.138-14.088,50.702c0,54.671,44.322,99.007,99.007,99.007
			c54.671,0,98.988-44.336,98.988-99.007C354.991,201.322,310.675,157,256.003,157z M179.828,256.518
			c-2.705-2.892-4.085-7.069-4.903-10.846c-1.126-5.096,11.731-8.377,12.818-3.44c0.703,3.2,1.646,6.621,3.931,9.065
			C195.404,255.29,183.182,260.112,179.828,256.518z M200.345,291.316c-0.211-0.39-0.524-0.973-0.861-1.573
			c-0.453,1.891-0.472,4.007-0.159,5.798c1.116,6.434-11.731,9.729-12.819,3.454c-1.183-6.837,0.255-14.612,6.111-18.982
			c7.247-5.413,15.562-1.795,19.416,5.52C215.325,291.726,203.199,296.7,200.345,291.316z M230.386,282.265
			c0.375-3.035,4.287-5.148,7.068-5.148c2.229,0,4.427,0,6.636,0c2.478,0,6.333,0.779,5.919,4.134
			c-0.385,3.026-4.307,5.134-7.088,5.134c-2.208,0-4.427,0-6.636,0C233.826,286.389,229.962,285.604,230.386,282.265z
			 M243.666,331.701c-1.646,0.544-5.591,1.011-6.828-0.755c-3.782-5.408-4.913-11.876-3.782-18.319
			c0.77-4.46,13.719-6.649,12.829-1.583c-0.342,2.021-0.356,4.11-0.159,6.154c1.015-0.582,2.04-1.164,3.036-1.795
			c2.05-1.313,9.306-3.531,10.389,0.236C261.97,325.374,250.907,329.268,243.666,331.701z M292.549,183.662
			c1.896-2.291,5.679-3.248,8.512-3.315c1.651-0.024,5.216,0.731,3.281,3.065c-0.668,0.814,0.159,2.031,0.516,2.839
			c1.443,3.209-11.058,7.353-12.818,3.436C291.014,187.41,290.907,185.649,292.549,183.662z M293.4,229.23
			c1.761-2.276,5.846-3.162,8.521-3.253c1.684-0.053,5.028,0.51,3.234,2.829c-2.71,3.489-4.908,7.646,0.419,9.638
			c2.795,1.025,0.033,3.306-1.377,4.052c-2.439,1.304-6.279,2.473-9.013,1.438c-2.425-0.89-6.121-2.695-5.913-5.871
			C289.488,234.595,291.298,231.919,293.4,229.23z M306.815,261.474c-0.212,3.47-2.252,6.197-4.552,8.628
			c-2.079,2.228-6.183,3.137-9.07,2.434c-2.819-0.688-3.185-2.978-1.328-4.961c1.318-1.399,1.959-2.713,2.089-4.643
			C294.247,258.259,307.167,255.839,306.815,261.474z M274.52,201.322c8.561,0-1.675,5.678-5.419,5.678
			C260.55,207,270.775,201.322,274.52,201.322z M277.974,284.219c-1.424,3.113-5.211,4.187-8.344,3.975
			c-4.72-0.303-7.327-3.095-7.641-7.661c-0.217-3.186,4.614-5.12,7.045-5.292c2.771-0.197,5.129,0.996,5.745,3.579
			C277.224,279.402,279.134,281.683,277.974,284.219z M310.386,310.563c-1.9,2.31-5.682,3.243-8.512,3.315c-0.01,0-0.01,0-0.02,0
			c-0.395,0.149-1.054,0.375-1.048,0.365c-0.063,0.048-1.348,0.843-1.811,1.184c-1.723,1.314-3.627,2.959-4.633,4.937
			c-0.554,1.06-0.809,1.968-0.866,2.758c1.534-0.159,2.911,0.014,3.71,0.703c1.404,1.188,3.012,2.106,4.422,3.31
			c3.32,2.834-7.344,5.495-8.608,5.563c-3.927,0.145-9.513,0.097-11.881-3.666c-1.708-2.743-0.043-6.299,1.578-8.651
			c5.299-7.737,15.124-12.612,24.382-12.872C308.77,307.465,312.301,308.244,310.386,310.563z M316.964,292.865
			c-0.996,0.024-3.445,0.067-3.772-1.338c-1.236-5.485-0.179-9.401,5.385-11.572c4.008-1.559,7.752-1.457,11.36-0.187
			c4.191,0.101,8.367,0.668,12.529,1.491c1.285,0.265,3.522,1.24,1.829,2.829C336.899,290.979,326.79,292.803,316.964,292.865z"/>
		<path fill="#006699" d="M301.297,313.907C301.123,313.917,301.152,313.917,301.297,313.907L301.297,313.907z"/>
	</g>
	<g id="Capa_1_2_">
	</g>
</g>
</svg>
