<?xml version="1.0" encoding="utf-8"?>
<!-- Generator: Adobe Illustrator 16.0.0, SVG Export Plug-In . SVG Version: 6.00 Build 0)  -->
<!DOCTYPE svg PUBLIC "-//W3C//DTD SVG 1.1//EN" "http://www.w3.org/Graphics/SVG/1.1/DTD/svg11.dtd">
<svg version="1.1" id="Capa_1" xmlns="http://www.w3.org/2000/svg" xmlns:xlink="http://www.w3.org/1999/xlink" x="0px" y="0px"
	 width="300px" height="300px" viewBox="-50 -50 300 300" enable-background="new -50 -50 300 300" xml:space="preserve">
<g>
	<g id="b54_pizza">
		<path fill="#006699" d="M67.843-44.403C30.963-36.211-0.732-14.32-21.6,15.74C2.656,30.725,38.797,53.858,92.985,89.431
			L67.843-44.403z M35.69-13.284c4.561,0,8.265,3.704,8.265,8.271c0,4.568-3.712,8.266-8.265,8.266
			c-4.555,0-8.251-3.704-8.251-8.266C27.431-9.58,31.129-13.284,35.69-13.284z M46.28,28.719c-10.783,0-19.51-2.784-19.51-6.202
			c0-3.431,8.725-6.208,19.51-6.208c10.769,0,19.493,2.777,19.493,6.208C65.773,25.927,57.055,28.719,46.28,28.719z"/>
		<path fill="#006699" d="M100.013-48c-7.631,0-15.077,0.734-22.399,1.863l29.428,156.699l-9.761-6.421
			C60.581,79.985,9.587,46.924-26.936,24.191c-13.278,22.178-21.061,48.044-21.061,75.798c0,81.731,66.259,148.012,148.011,148.012
			c81.731,0,147.984-66.28,147.984-148.012C247.996,18.26,181.745-48,100.013-48z M-13.866,100.773
			c-4.044-4.322-6.106-10.566-7.33-16.213c-1.683-7.618,17.538-12.523,19.163-5.142c1.049,4.783,2.46,9.898,5.876,13.551
			C9.42,98.939-8.852,106.146-13.866,100.773z M16.808,152.797c-0.317-0.584-0.786-1.454-1.288-2.351
			c-0.678,2.826-0.707,5.988-0.238,8.666c1.669,9.618-17.538,14.544-19.164,5.165c-1.768-10.223,0.382-21.846,9.136-28.378
			c10.833-8.094,23.266-2.684,29.026,8.252C39.201,153.41,21.073,160.847,16.808,152.797z M61.718,139.266
			c0.561-4.537,6.408-7.696,10.565-7.696c3.333,0,6.618,0,9.92,0c3.706,0,9.468,1.165,8.849,6.182
			c-0.575,4.522-6.438,7.673-10.596,7.673c-3.301,0-6.618,0-9.92,0C66.859,145.43,61.083,144.256,61.718,139.266z M81.57,213.17
			c-2.461,0.815-8.358,1.513-10.208-1.13c-5.653-8.082-7.345-17.752-5.653-27.385c1.15-6.666,20.509-9.939,19.178-2.365
			c-0.511,3.02-0.531,6.144-0.237,9.197c1.517-0.867,3.048-1.737,4.538-2.683c3.066-1.963,13.913-5.276,15.53,0.353
			C108.935,203.713,92.395,209.532,81.57,213.17z M154.647-8.142c2.835-3.425,8.491-4.856,12.725-4.955
			c2.469-0.037,7.799,1.092,4.905,4.581c-0.998,1.218,0.238,3.037,0.771,4.244c2.157,4.797-16.531,10.992-19.162,5.138
			C152.353-2.539,152.193-5.172,154.647-8.142z M155.921,59.981c2.632-3.403,8.739-4.728,12.737-4.865
			c2.519-0.079,7.518,0.762,4.834,4.231c-4.05,5.215-7.336,11.43,0.628,14.407c4.179,1.533,0.05,4.943-2.059,6.059
			c-3.646,1.949-9.388,3.696-13.475,2.149c-3.625-1.33-9.151-4.029-8.839-8.777C150.072,68.002,152.777,64,155.921,59.981z
			 M175.976,108.185c-0.318,5.186-3.368,9.265-6.805,12.896c-3.109,3.332-9.244,4.689-13.56,3.642
			c-4.215-1.031-4.763-4.453-1.985-7.417c1.971-2.093,2.929-4.059,3.122-6.943C157.187,103.378,176.501,99.76,175.976,108.185z
			 M127.694,18.26c12.8,0-2.502,8.488-8.1,8.488C106.811,26.748,122.098,18.26,127.694,18.26z M132.859,142.186
			c-2.13,4.654-7.79,6.261-12.475,5.942c-7.056-0.453-10.954-4.625-11.423-11.452c-0.325-4.762,6.898-7.652,10.532-7.909
			c4.142-0.295,7.668,1.486,8.589,5.349C131.738,134.985,134.593,138.396,132.859,142.186z M181.313,181.568
			c-2.84,3.455-8.494,4.851-12.725,4.958c-0.017,0-0.017,0-0.031,0c-0.59,0.223-1.575,0.561-1.564,0.547
			c-0.096,0.069-2.017,1.258-2.709,1.769c-2.576,1.966-5.422,4.424-6.927,7.379c-0.826,1.585-1.209,2.943-1.294,4.126
			c2.292-0.239,4.353,0.021,5.547,1.051c2.098,1.775,4.502,3.147,6.61,4.946c4.964,4.236-10.979,8.217-12.869,8.315
			c-5.871,0.22-14.222,0.146-17.762-5.478c-2.552-4.103-0.064-9.419,2.359-12.935c7.922-11.565,22.609-18.854,36.45-19.242
			C178.896,176.938,184.176,178.103,181.313,181.568z M191.147,155.112c-1.489,0.035-5.151,0.099-5.639-2
			c-1.848-8.199-0.269-14.054,8.05-17.301c5.992-2.33,11.589-2.178,16.982-0.28c6.266,0.152,12.509,0.999,18.73,2.231
			c1.922,0.394,5.266,1.854,2.734,4.228C220.95,152.292,205.837,155.019,191.147,155.112z"/>
		<path fill="#006699" d="M167.726,186.57C167.466,186.585,167.51,186.585,167.726,186.57L167.726,186.57z"/>
	</g>
	<g id="Capa_1_2_">
	</g>
</g>
</svg>
