<?xml version="1.0" encoding="utf-8"?>
<!-- Generator: Adobe Illustrator 16.0.0, SVG Export Plug-In . SVG Version: 6.00 Build 0)  -->
<!DOCTYPE svg PUBLIC "-//W3C//DTD SVG 1.1//EN" "http://www.w3.org/Graphics/SVG/1.1/DTD/svg11.dtd">
<svg version="1.1" id="Capa_1" xmlns="http://www.w3.org/2000/svg" xmlns:xlink="http://www.w3.org/1999/xlink" x="0px" y="0px"
	 width="300px" height="300px" viewBox="-50 -50 300 300" enable-background="new -50 -50 300 300" xml:space="preserve">
<g>
	<g>
		<path fill="#006699" d="M-40.036,109.005c0,77.335,62.692,140.037,140.033,140.037c77.332,0,140.038-62.699,140.038-140.037
			H-40.036L-40.036,109.005z"/>
		<path fill="#006699" d="M11.585,98.805h223.5c-1.729-6.87-6.398-12.55-12.587-15.671c0.1-0.875,0.262-1.734,0.262-2.646
			c0-10.047-7.28-18.346-16.85-20.025c0-0.114,0.042-0.234,0.042-0.358c0-8.473-5.784-15.541-13.581-17.645
			c0-0.033,0.004-0.067,0.004-0.095c0-1.702-0.459-3.281-1.201-4.686l33.62-59.366c2.051-3.628,0.769-8.236-2.86-10.291
			c-3.606-2.048-8.225-0.783-10.285,2.85l-33.489,59.107c-2.802-3.249-6.889-5.344-11.515-5.344c-0.099,0-0.181,0.032-0.275,0.032
			c-0.481-1.822-1.576-3.358-3.027-4.437l20.828-59.215c1.381-3.936-0.679-8.24-4.618-9.625c-3.944-1.389-8.234,0.686-9.619,4.614
			l-21.818,62.006c-2.331-1.091-4.878-1.755-7.631-1.755c-0.098,0-0.215,0.032-0.307,0.032c-1.072-4.137-4.788-7.211-9.243-7.211
			c-2.47,0-4.704,0.96-6.402,2.497c-3.144-1.555-13.755-3.985-21.85,0.613c-0.942,0.534-1.828,1.127-2.68,1.77
			c-0.847-0.642-1.759-1.199-2.664-1.77c-2.927-1.842-14.504-4.742-21.854-0.619c-1.694-1.544-3.926-2.496-6.399-2.496
			c-4.473,0-8.192,3.072-9.244,7.212c-0.12,0-0.221-0.033-0.333-0.033c-4.795,0-9.125,1.886-12.393,4.89
			c-1.459-1.537-3.497-2.497-5.773-2.497c-3.721,0-6.828,2.559-7.708,6.015c-0.095,0-0.179-0.031-0.274-0.031
			c-5.738,0-10.688,3.187-13.322,7.85c-0.725-0.166-1.472-0.277-2.245-0.277c-5.605,0-10.147,4.549-10.147,10.148
			c0,0.036,0.004,0.065,0.004,0.099C-0.164,44.551-5.938,51.62-5.938,60.093c0,0.12,0.033,0.238,0.033,0.357
			c-9.568,1.673-16.851,9.972-16.851,20.021c0,0.905,0.154,1.771,0.266,2.641c-6.204,3.12-10.867,8.805-12.586,15.669L11.585,98.805
			z"/>
	</g>
</g>
</svg>
