<?xml version="1.0" encoding="utf-8"?>
<!-- Generator: Adobe Illustrator 16.0.0, SVG Export Plug-In . SVG Version: 6.00 Build 0)  -->
<!DOCTYPE svg PUBLIC "-//W3C//DTD SVG 1.1//EN" "http://www.w3.org/Graphics/SVG/1.1/DTD/svg11.dtd">
<svg version="1.1" id="Capa_1" xmlns="http://www.w3.org/2000/svg" xmlns:xlink="http://www.w3.org/1999/xlink" x="0px" y="0px"
	 width="200px" height="200px" viewBox="156 156 200 200" enable-background="new 156 156 200 200" xml:space="preserve">
<g>
	<g>
		<path fill="#006699" d="M163.454,261.952c0,51.109,41.433,92.549,92.546,92.549c51.107,0,92.549-41.439,92.549-92.549H163.454
			L163.454,261.952z"/>
		<path fill="#006699" d="M197.57,255.211h147.708c-1.142-4.54-4.229-8.294-8.319-10.357c0.066-0.579,0.173-1.147,0.173-1.748
			c0-6.64-4.811-12.126-11.136-13.236c0-0.075,0.028-0.154,0.028-0.236c0-5.6-3.823-10.271-8.974-11.662
			c0-0.022,0.003-0.044,0.003-0.063c0-1.125-0.305-2.169-0.795-3.097l22.219-39.234c1.355-2.399,0.507-5.443-1.89-6.801
			c-2.383-1.352-5.436-0.516-6.797,1.883l-22.132,39.062c-1.852-2.147-4.552-3.531-7.611-3.531c-0.066,0-0.119,0.022-0.183,0.022
			c-0.317-1.204-1.04-2.22-1.999-2.933l13.765-39.134c0.912-2.6-0.449-5.446-3.053-6.361c-2.606-0.918-5.442,0.453-6.357,3.05
			l-14.419,40.979c-1.541-0.72-3.223-1.16-5.043-1.16c-0.066,0-0.142,0.022-0.204,0.022c-0.708-2.735-3.163-4.766-6.109-4.766
			c-1.632,0-3.109,0.635-4.231,1.65c-2.078-1.028-9.09-2.632-14.441,0.406c-0.622,0.352-1.207,0.745-1.77,1.17
			c-0.56-0.424-1.163-0.792-1.76-1.17c-1.934-1.217-9.586-3.134-14.444-0.409c-1.119-1.022-2.594-1.651-4.229-1.651
			c-2.956,0-5.414,2.031-6.109,4.767c-0.079,0-0.147-0.022-0.22-0.022c-3.169,0-6.031,1.245-8.19,3.232
			c-0.965-1.016-2.311-1.65-3.817-1.65c-2.459,0-4.512,1.691-5.093,3.974c-0.063,0-0.12-0.019-0.182-0.019
			c-3.792,0-7.062,2.106-8.804,5.188c-0.478-0.11-0.971-0.182-1.484-0.182c-3.704,0-6.706,3.005-6.706,6.706
			c0,0.025,0.003,0.044,0.003,0.066c-5.163,1.39-8.979,6.062-8.979,11.661c0,0.079,0.022,0.157,0.022,0.236
			c-6.323,1.107-11.136,6.59-11.136,13.233c0,0.597,0.101,1.17,0.176,1.745c-4.1,2.062-7.181,5.819-8.319,10.356L197.57,255.211z"/>
	</g>
</g>
</svg>
