<?xml version="1.0" encoding="utf-8"?>
<!-- Generator: Adobe Illustrator 16.0.0, SVG Export Plug-In . SVG Version: 6.00 Build 0)  -->
<!DOCTYPE svg PUBLIC "-//W3C//DTD SVG 1.1//EN" "http://www.w3.org/Graphics/SVG/1.1/DTD/svg11.dtd">
<svg version="1.1" id="Capa_1" xmlns="http://www.w3.org/2000/svg" xmlns:xlink="http://www.w3.org/1999/xlink" x="0px" y="0px"
	 width="300px" height="300px" viewBox="106 106 300 300" enable-background="new 106 106 300 300" xml:space="preserve">
<g>
	<path fill="#006699" d="M256,106.501C173.565,106.501,106.5,173.566,106.5,256c0,82.434,67.065,149.499,149.499,149.499
		c82.435,0,149.5-67.065,149.5-149.499C405.5,173.566,338.435,106.501,256,106.501z M276.51,313.871
		c-11.198,0-21.88-2.486-31.669-6.368c-4.186-1.175-8.066-2.559-11.289-4.168c-10.173-5.088-19.445-12.154-27.604-21.02
		c0,0-46.971,46.302-46.971,32.081c0-16.1,14.169-46.791,14.169-46.791c1.039-3.424,1.039-7.048,0-10.472
		c0,0-14.169-31.416-14.169-46.8c0-13.413,41.776,27.012,46.526,31.651c7.852-7.78,18.636-16.229,31.339-22.584
		c-1.233-5.615-2.911-13.317-3.618-16.844c-1.537-7.666,5.694-7.461,5.694-7.461c0.385-0.04,9.603-0.978,22.058,1.514
		c12.557,2.505,24.021,7.66,33.737,15.02c36.215,8.993,58.311,42.41,58.311,49.993C353.023,271.081,323.401,313.871,276.51,313.871z
		"/>
	<circle fill="#006699" cx="307.186" cy="247.355" r="14.946"/>
</g>
</svg>
