<?xml version="1.0" encoding="utf-8"?>
<!-- Generator: Adobe Illustrator 16.0.0, SVG Export Plug-In . SVG Version: 6.00 Build 0)  -->
<!DOCTYPE svg PUBLIC "-//W3C//DTD SVG 1.1//EN" "http://www.w3.org/Graphics/SVG/1.1/DTD/svg11.dtd">
<svg version="1.1" id="Capa_1" xmlns="http://www.w3.org/2000/svg" xmlns:xlink="http://www.w3.org/1999/xlink" x="0px" y="0px"
	 width="200px" height="200px" viewBox="156 156 200 200" enable-background="new 156 156 200 200" xml:space="preserve">
<g>
	<g>
		<g id="Layer_5_13_">
			<g>
				<path fill="#006699" d="M339.925,251.677c0.628-1.351,4.926-7.046,8.816-12.95c0.004-0.004,0.007-0.009,0.008-0.012
					c0.879-1.333,1.734-2.674,2.525-3.98c0.022-0.037,0.044-0.073,0.066-0.11c0.128-0.213,9.228-14.802-3.733-8.894
					c0,0.001-0.001,0.002-0.002,0.003c-2.436,1.249-5.532,3.111-9.428,5.721c-8.495,5.695-25.776,14.031-25.776,14.031
					s-3.007,1.625-4.991,0.387c-10.021-6.252-24.624-17.359-43.876-23.542c-0.32-0.104-0.728-0.348-0.174-0.86l8.243-5.766
					c0,0,0.647-0.558-0.183-0.828c-4.079-1.33-21.074-7.028-35.778-1.789c-2.995,1.067-5.454,1.943-7.476,2.663
					c-0.869,0.31-1.752,0.674-3.513,0.893c-40.1,1.371-67.219,30.807-67.219,42.45c0,7.815,4.213,13.059,19.608,20.349
					c0.309-0.05,2.659,1.638,7.822,0.086c1.383-0.416,11.211-4.116,11.602-4.284c0.392-0.179,0.646-0.267,0.809-0.239
					c0.208,0.032,0.362,0.496,0.361,0.59c-0.032,2.784-5.25,5.039-8.212,7.512c-0.509,0.237-0.645,1.418,0.245,1.8
					c0.001,0,10.461,5.609,27.029,7.354c1.339,0.142,18.777,11.314,36.362,8.317c9.301-1.587,13.727-2.129,15.747-2.686
					c1.763-0.485,0.921-1.045,0.921-1.045l-8.815-7.023c-0.597-0.662-0.114-1.171,0.387-1.312
					c19.574-5.57,35.05-14.351,44.268-21.873c1.241-1.013,4.467,1.396,6.771,2.56c7.647,3.864,39.395,16.95,42.01,14.18
					c0.226-0.232,0.241-0.581,0.013-1.059C349.893,272.936,333.747,264.933,339.925,251.677z M189.904,250.772
					c-2.824,0-5.113-2.332-5.113-5.207c0-2.875,2.289-5.207,5.113-5.207s5.114,2.331,5.114,5.207
					C195.018,248.441,192.729,250.772,189.904,250.772z M212.786,280.397c-0.314,0.283-0.602,0.71-0.435,0.097
					c0,0,7.971-11.993,9.004-27.496c0.774-11.618-6.966-25.847-6.966-25.847s0.015-0.416,0.287-0.087
					C217.432,230.397,244.564,251.835,212.786,280.397z"/>
			</g>
		</g>
	</g>
</g>
</svg>
