<?xml version="1.0" encoding="utf-8"?>
<!-- Generator: Adobe Illustrator 16.0.0, SVG Export Plug-In . SVG Version: 6.00 Build 0)  -->
<!DOCTYPE svg PUBLIC "-//W3C//DTD SVG 1.1//EN" "http://www.w3.org/Graphics/SVG/1.1/DTD/svg11.dtd">
<svg version="1.1" id="Capa_1" xmlns="http://www.w3.org/2000/svg" xmlns:xlink="http://www.w3.org/1999/xlink" x="0px" y="0px"
	 width="300px" height="300px" viewBox="0 0 300 300" enable-background="new 0 0 300 300" xml:space="preserve">
<g>
	<path fill="#006699" d="M150.501,1.002c-82.436,0-149.5,67.065-149.5,149.499C1.001,232.936,68.065,300,150.5,300
		c82.436,0,149.5-67.064,149.5-149.499C300.001,68.067,232.936,1.002,150.501,1.002z M171.012,208.372
		c-11.197,0-21.881-2.486-31.67-6.368c-4.187-1.175-8.065-2.561-11.289-4.168c-10.173-5.088-19.444-12.152-27.604-21.021
		c0,0-46.972,46.304-46.972,32.082c0-16.101,14.17-46.791,14.17-46.791c1.039-3.424,1.039-7.049,0-10.473
		c0,0-14.17-31.416-14.17-46.8c0-13.413,41.776,27.012,46.526,31.651c7.853-7.78,18.636-16.229,31.339-22.584
		c-1.232-5.615-2.91-13.317-3.617-16.844c-1.537-7.666,5.693-7.461,5.693-7.461c0.385-0.041,9.604-0.979,22.059,1.514
		c12.558,2.505,24.021,7.66,33.736,15.02c36.215,8.993,58.313,42.41,58.313,49.993C247.523,165.582,217.902,208.372,171.012,208.372
		z"/>
	<circle fill="#006699" cx="201.688" cy="141.856" r="14.946"/>
</g>
</svg>
