<?xml version="1.0" encoding="utf-8"?>
<!-- Generator: Adobe Illustrator 16.0.0, SVG Export Plug-In . SVG Version: 6.00 Build 0)  -->
<!DOCTYPE svg PUBLIC "-//W3C//DTD SVG 1.1//EN" "http://www.w3.org/Graphics/SVG/1.1/DTD/svg11.dtd">
<svg version="1.1" id="Capa_1" xmlns="http://www.w3.org/2000/svg" xmlns:xlink="http://www.w3.org/1999/xlink" x="0px" y="0px"
	 width="30px" height="30px" viewBox="241 241 30 30" enable-background="new 241 241 30 30" xml:space="preserve">
<path fill="#006699" d="M266.562,245.437c-2.822-2.821-6.572-4.375-10.563-4.375c-3.989,0-7.74,1.554-10.562,4.375
	c-2.821,2.822-4.375,6.573-4.375,10.562c0,3.99,1.554,7.74,4.375,10.562c2.822,2.821,6.572,4.375,10.562,4.375
	c3.99,0,7.74-1.554,10.562-4.375s4.375-6.571,4.375-10.562C270.936,252.01,269.382,248.259,266.562,245.437z M259.326,256.272
	l3.723,3.724c0.301,0.3,0.301,0.789,0,1.089l-2.149,2.15c-0.145,0.145-0.339,0.225-0.545,0.225c-0.207,0-0.399-0.08-0.545-0.225
	l-3.723-3.724c-0.072-0.071-0.2-0.071-0.272,0l-3.723,3.724c-0.145,0.145-0.339,0.225-0.545,0.225c-0.206,0-0.399-0.08-0.544-0.225
	l-2.15-2.15c-0.145-0.146-0.225-0.339-0.225-0.545s0.08-0.399,0.225-0.544l3.723-3.724c0.074-0.074,0.074-0.198,0-0.272l-3.88-3.88
	c-0.145-0.145-0.225-0.338-0.225-0.544c0-0.207,0.08-0.399,0.225-0.544l2.15-2.15c0.145-0.145,0.338-0.225,0.545-0.225
	c0.206,0,0.399,0.08,0.544,0.225l3.88,3.88c0.072,0.072,0.2,0.072,0.272,0l3.88-3.88c0.145-0.145,0.339-0.225,0.545-0.225
	s0.399,0.08,0.545,0.225l2.149,2.15c0.146,0.145,0.226,0.338,0.226,0.544s-0.08,0.399-0.226,0.544l-3.88,3.88
	C259.253,256.075,259.253,256.199,259.326,256.272z"/>
</svg>
