<?xml version="1.0" encoding="utf-8"?>
<!-- Generator: Adobe Illustrator 16.0.0, SVG Export Plug-In . SVG Version: 6.00 Build 0)  -->
<!DOCTYPE svg PUBLIC "-//W3C//DTD SVG 1.1//EN" "http://www.w3.org/Graphics/SVG/1.1/DTD/svg11.dtd">
<svg version="1.1" id="Capa_1" xmlns="http://www.w3.org/2000/svg" xmlns:xlink="http://www.w3.org/1999/xlink" x="0px" y="0px"
	 width="40px" height="37px" viewBox="236 237.5 40 37" enable-background="new 236 237.5 40 37" xml:space="preserve">
<g>
	<g>
		<circle fill="#006699" cx="240.492" cy="242.287" r="4.466"/>
		<circle fill="#006699" cx="240.492" cy="256.001" r="4.466"/>
		<circle fill="#006699" cx="240.492" cy="269.714" r="4.466"/>
		<g>
			<path fill="#006699" d="M275.403,238.374h-26.397c-0.315,0-0.572,0.256-0.572,0.571v6.685c0,0.315,0.256,0.571,0.572,0.571
				h26.397c0.313,0,0.57-0.256,0.57-0.571v-6.685C275.974,238.629,275.717,238.374,275.403,238.374z"/>
			<path fill="#006699" d="M275.403,252.086h-26.397c-0.315,0-0.572,0.256-0.572,0.571v6.685c0,0.315,0.256,0.572,0.572,0.572
				h26.397c0.313,0,0.57-0.257,0.57-0.572v-6.685C275.974,252.343,275.717,252.086,275.403,252.086z"/>
			<path fill="#006699" d="M275.403,265.8h-26.397c-0.315,0-0.572,0.256-0.572,0.571v6.686c0,0.314,0.256,0.571,0.572,0.571h26.397
				c0.313,0,0.57-0.257,0.57-0.571v-6.686C275.974,266.056,275.717,265.8,275.403,265.8z"/>
		</g>
	</g>
</g>
</svg>
