<?xml version="1.0" encoding="utf-8"?>
<!-- Generator: Adobe Illustrator 16.0.0, SVG Export Plug-In . SVG Version: 6.00 Build 0)  -->
<!DOCTYPE svg PUBLIC "-//W3C//DTD SVG 1.1//EN" "http://www.w3.org/Graphics/SVG/1.1/DTD/svg11.dtd">
<svg version="1.1" id="Layer_1" xmlns="http://www.w3.org/2000/svg" xmlns:xlink="http://www.w3.org/1999/xlink" x="0px" y="0px"
	 width="31px" height="28px" viewBox="-5.5 -4 31 28" enable-background="new -5.5 -4 31 28" xml:space="preserve">
<path fill="#016699" d="M23.542-3.611L12.916-2.803v0.576l0.009,6.05c0,0.505,0.36,0.917,0.81,0.917h2.513
	c0.444,0,0.572,0.315,0.283,0.698l-6.009,9.774c-0.288,0.383-0.762,0.383-1.05,0l-6.01-9.774c-0.288-0.382-0.16-0.696,0.284-0.696
	l2.515,0c0.444,0,0.808-0.412,0.808-0.914V3.721L7.06-2.838L-3.548-3.612c-0.854,0-1.548,0.694-1.548,1.55
	c0,0,12.772,23.998,13.935,25.158c1.16,1.161,2.321,0,2.321,0L25.095-2.063C25.09-2.919,24.396-3.611,23.542-3.611z"/>
</svg>
