<?xml version="1.0" encoding="utf-8"?>
<!-- Generator: Adobe Illustrator 16.0.0, SVG Export Plug-In . SVG Version: 6.00 Build 0)  -->
<!DOCTYPE svg PUBLIC "-//W3C//DTD SVG 1.1//EN" "http://www.w3.org/Graphics/SVG/1.1/DTD/svg11.dtd">
<svg version="1.1" id="Layer_1" xmlns="http://www.w3.org/2000/svg" xmlns:xlink="http://www.w3.org/1999/xlink" x="0px" y="0px"
	 width="34px" height="29.994px" viewBox="80.993 90.641 34 29.994" enable-background="new 80.993 90.641 34 29.994"
	 xml:space="preserve">
<path fill="#016699" d="M112.92,90.641l-11.709,0.889v0.637l0.01,6.667c0,0.555,0.398,1.01,0.891,1.01h2.77
	c0.489,0,0.629,0.346,0.312,0.768l-6.622,10.769c-0.316,0.422-0.837,0.422-1.155,0l-6.623-10.769
	c-0.316-0.422-0.176-0.767,0.313-0.767h2.77c0.49,0,0.89-0.454,0.891-1.006V98.72l-0.009-7.229l-11.688-0.851
	c-0.942,0-1.706,0.764-1.706,1.706c0,0,14.073,26.441,15.354,27.72c1.278,1.279,2.558,0,2.558,0l15.353-27.72
	C114.625,91.404,113.861,90.641,112.92,90.641z"/>
</svg>
