<?xml version="1.0" encoding="utf-8"?>
<!-- Generator: Adobe Illustrator 16.0.0, SVG Export Plug-In . SVG Version: 6.00 Build 0)  -->
<!DOCTYPE svg PUBLIC "-//W3C//DTD SVG 1.1//EN" "http://www.w3.org/Graphics/SVG/1.1/DTD/svg11.dtd">
<svg version="1.1" id="Layer_1" xmlns="http://www.w3.org/2000/svg" xmlns:xlink="http://www.w3.org/1999/xlink" x="0px" y="0px"
	 width="50px" height="46px" viewBox="73.118 79.486 50 46" enable-background="new 73.118 79.486 50 46" xml:space="preserve">
<path fill="#FFCC00" d="M120.408,79.625h-44.58c-1.406,0-2.547,1.164-2.547,2.6c0,0,21.016,40.304,22.928,42.255
	c1.91,1.949,3.821,0,3.821,0l22.925-42.255C122.955,80.789,121.816,79.625,120.408,79.625z M111.62,93.757l-0.359,0.373
	c-0.515,0.534-1.195,0.75-1.519,0.481c-0.325-0.271-0.587-0.486-0.587-0.486v11.602c0,0.722-0.619,1.306-1.384,1.306h-5.259
	c-0.764,0-1.313-0.584-1.3-1.306v-8.233h-6.329v8.233c0,0.722-0.62,1.306-1.384,1.306h-4.961c-0.766,0-1.386-0.584-1.385-1.306
	V93.959l-0.951,0.803c-0.525,0.445-1.381,0.383-1.911-0.138l-0.318-0.312c-0.53-0.521-0.502-1.338,0.061-1.826l12.727-11.009
	c0.565-0.487,1.489-0.498,2.064-0.023l12.684,10.473C112.085,92.404,112.135,93.222,111.62,93.757z"/>
</svg>
