<?xml version="1.0" encoding="utf-8"?>
<!-- Generator: Adobe Illustrator 16.0.0, SVG Export Plug-In . SVG Version: 6.00 Build 0)  -->
<!DOCTYPE svg PUBLIC "-//W3C//DTD SVG 1.1//EN" "http://www.w3.org/Graphics/SVG/1.1/DTD/svg11.dtd">
<svg version="1.1" id="Layer_1" xmlns="http://www.w3.org/2000/svg" xmlns:xlink="http://www.w3.org/1999/xlink" x="0px" y="0px"
	 width="50px" height="46px" viewBox="73.118 78.484 50 46" enable-background="new 73.118 78.484 50 46" xml:space="preserve">
<path fill="#006699" d="M120.408,78.624h-44.58c-1.406,0-2.547,1.164-2.547,2.6c0,0,21.016,40.305,22.928,42.256
	c1.91,1.949,3.82,0,3.82,0l22.926-42.256C122.955,79.788,121.816,78.624,120.408,78.624z M111.62,92.756l-0.358,0.373
	c-0.516,0.534-1.195,0.75-1.52,0.481c-0.325-0.271-0.588-0.486-0.588-0.486v11.602c0,0.723-0.618,1.307-1.383,1.307h-5.26
	c-0.764,0-1.313-0.584-1.3-1.307v-8.232h-6.329v8.232c0,0.723-0.619,1.307-1.384,1.307h-4.961c-0.767,0-1.386-0.584-1.386-1.307
	V92.958l-0.95,0.803c-0.525,0.445-1.382,0.383-1.911-0.138l-0.318-0.312c-0.529-0.521-0.502-1.338,0.062-1.826l12.727-11.01
	c0.565-0.486,1.489-0.498,2.064-0.022l12.684,10.473C112.085,91.403,112.135,92.222,111.62,92.756z"/>
</svg>
