<?xml version="1.0" encoding="utf-8"?>
<!-- Generator: Adobe Illustrator 16.0.0, SVG Export Plug-In . SVG Version: 6.00 Build 0)  -->
<!DOCTYPE svg PUBLIC "-//W3C//DTD SVG 1.1//EN" "http://www.w3.org/Graphics/SVG/1.1/DTD/svg11.dtd">
<svg version="1.1" id="Capa_1" xmlns="http://www.w3.org/2000/svg" xmlns:xlink="http://www.w3.org/1999/xlink" x="0px" y="0px"
	 width="200px" height="200px" viewBox="123 -125.226 200 200" enable-background="new 123 -125.226 200 200" xml:space="preserve">
<g>
	<path fill="#FFCC00" d="M267.532-30.293c1.657-1.824,1.499-4.613-0.354-6.236L226.35-72.256c-1.854-1.622-4.824-1.584-6.644,0.078
		L178.74-34.625c-1.813,1.663-1.902,4.452-0.197,6.228l1.027,1.063c1.705,1.777,4.459,1.989,6.15,0.473l3.061-2.739v40.139
		c0,2.466,1.996,4.459,4.459,4.459h15.969c2.46,0,4.459-1.993,4.459-4.459v-28.081h20.369v28.081
		c-0.039,2.466,1.729,4.456,4.186,4.456h16.926c2.463,0,4.455-1.99,4.455-4.456v-39.576c0,0,0.848,0.738,1.89,1.658
		c1.042,0.915,3.231,0.18,4.89-1.642L267.532-30.293z"/>
</g>
<path fill="#FFCC00" d="M322.75-25.226c0,55.091-44.659,99.75-99.75,99.75c-55.09,0-99.75-44.659-99.75-99.75
	c0-55.09,44.66-99.75,99.75-99.75C278.091-124.976,322.75-80.316,322.75-25.226z M223-109.976c-46.807,0-84.75,37.944-84.75,84.75
	c0,46.807,37.943,84.75,84.75,84.75s84.75-37.943,84.75-84.75C307.75-72.031,269.807-109.976,223-109.976z"/>
</svg>
