<?xml version="1.0" encoding="utf-8"?>
<!-- Generator: Adobe Illustrator 16.0.0, SVG Export Plug-In . SVG Version: 6.00 Build 0)  -->
<!DOCTYPE svg PUBLIC "-//W3C//DTD SVG 1.1//EN" "http://www.w3.org/Graphics/SVG/1.1/DTD/svg11.dtd">
<svg version="1.1" id="Layer_1" xmlns="http://www.w3.org/2000/svg" xmlns:xlink="http://www.w3.org/1999/xlink" x="0px" y="0px"
	 width="200px" height="200px" viewBox="156 156 200 200" enable-background="new 156 156 200 200" xml:space="preserve">
<g id="favs">
	<g>
		<polygon fill="#FFCC00" points="271.422,239.795 256.098,208.521 240.604,239.709 206.125,244.617 230.988,269 225.012,303.301 
			255.878,287.18 286.66,303.479 280.871,269.141 305.875,244.902 		"/>
		<path fill="#FFCC00" d="M256,156.25c-55.093,0-99.75,44.657-99.75,99.75c0,55.092,44.657,99.75,99.75,99.75
			c55.092,0,99.75-44.658,99.75-99.75C355.75,200.907,311.092,156.25,256,156.25z M256,340.164
			c-46.484,0-84.164-37.68-84.164-84.164s37.68-84.164,84.164-84.164s84.164,37.68,84.164,84.164S302.484,340.164,256,340.164z"/>
	</g>
</g>
<g id="Layer_2">
</g>
</svg>
