<?xml version="1.0" encoding="utf-8"?>
<!-- Generator: Adobe Illustrator 16.0.0, SVG Export Plug-In . SVG Version: 6.00 Build 0)  -->
<!DOCTYPE svg PUBLIC "-//W3C//DTD SVG 1.1//EN" "http://www.w3.org/Graphics/SVG/1.1/DTD/svg11.dtd">
<svg version="1.1" id="DESTROY" xmlns="http://www.w3.org/2000/svg" xmlns:xlink="http://www.w3.org/1999/xlink" x="0px" y="0px"
	 width="400px" height="400px" viewBox="0 0 400 400" enable-background="new 0 0 400 400" xml:space="preserve">
<circle id="back" fill="#016699" cx="200" cy="200" r="194.322"/>
<g>
	<path fill="#FFCC00" d="M58.777,224.406l23.324-50.474c0.225-0.45,0.6-0.825,1.275-0.825h0.75c0.75,0,1.05,0.375,1.275,0.825
		l23.099,50.474c0.45,0.975-0.15,1.949-1.275,1.949H100.7c-1.125,0-1.65-0.45-2.175-1.5l-3.675-8.1H72.426l-3.675,8.1
		c-0.3,0.75-0.975,1.5-2.175,1.5h-6.525C58.927,226.355,58.327,225.381,58.777,224.406z M91.176,208.432l-7.5-16.5h-0.225
		l-7.35,16.5H91.176z"/>
	<path fill="#FFCC00" d="M142.026,199.807c4.35,1.5,9,5.025,9,12.074c0,8.4-7.2,14.475-16.35,14.475h-18.149
		c-0.825,0-1.425-0.675-1.425-1.425v-49.648c0-0.75,0.6-1.425,1.425-1.425h17.174c8.924,0,15.824,6,15.824,13.875
		c0,5.625-3.6,9.75-7.5,11.7V199.807z M132.951,195.907c3.825,0,6.3-3,6.3-6.75c0-3.75-2.475-6.375-6.3-6.375h-8.175v13.125H132.951
		z M134.001,217.506c3.75,0,6.6-2.925,6.6-6.824c0-3.75-2.85-6.525-6.6-6.525h-9.225v13.35H134.001z"/>
	<path fill="#FFCC00" d="M185.15,173.107c15,0,26.999,12.075,26.999,27.074c0,15-12,26.924-26.999,26.924
		c-14.999,0-26.924-11.924-26.924-26.924C158.227,185.182,170.151,173.107,185.15,173.107z M185.15,217.355
		c9.45,0,17.249-7.725,17.249-17.174c0-9.45-7.799-17.324-17.249-17.324s-17.174,7.875-17.174,17.324
		C167.976,209.631,175.701,217.355,185.15,217.355z"/>
	<path fill="#FFCC00" d="M221.826,175.283c0-0.75,0.6-1.425,1.425-1.425H244.7c8.999,0,16.349,7.2,16.349,16.125
		c0,6.9-4.574,12.524-11.099,15.149l10.274,19.05c0.524,0.975,0,2.175-1.275,2.175h-7.874c-0.676,0-1.051-0.375-1.2-0.675
		l-9.975-19.874h-8.325v19.124c0,0.75-0.675,1.425-1.425,1.425h-6.899c-0.825,0-1.425-0.675-1.425-1.425V175.283z M243.875,197.782
		c3.975,0,7.425-3.45,7.425-7.65c0-3.975-3.45-7.274-7.425-7.274H231.65v14.924H243.875z"/>
	<path fill="#FFCC00" d="M279.8,182.857h-11.475c-0.825,0-1.425-0.675-1.425-1.425v-6.149c0-0.75,0.6-1.425,1.425-1.425h32.773
		c0.825,0,1.425,0.675,1.425,1.425v6.149c0,0.75-0.6,1.425-1.425,1.425h-11.475v42.073c0,0.75-0.675,1.425-1.425,1.425h-6.975
		c-0.75,0-1.425-0.675-1.425-1.425V182.857z"/>
	<path fill="#FFCC00" d="M314.374,214.73c3.45,0,6.225,2.851,6.225,6.225c0,3.375-2.774,6.15-6.225,6.15
		c-3.3,0-6.074-2.775-6.074-6.15C308.3,217.581,311.074,214.73,314.374,214.73z M311.824,204.756l-2.925-20.924v-8.549
		c0-0.75,0.675-1.425,1.425-1.425h8.25c0.75,0,1.425,0.675,1.425,1.425v8.399l-2.925,21.074c-0.075,0.601-0.75,1.2-1.425,1.2h-2.4
		C312.574,205.956,311.899,205.356,311.824,204.756z"/>
	<path fill="#FFCC00" d="M334.323,214.73c3.45,0,6.225,2.851,6.225,6.225c0,3.375-2.774,6.15-6.225,6.15
		c-3.3,0-6.074-2.775-6.074-6.15C328.249,217.581,331.023,214.73,334.323,214.73z M331.773,204.756l-2.925-20.924v-8.549
		c0-0.75,0.675-1.425,1.425-1.425h8.25c0.75,0,1.425,0.675,1.425,1.425v8.399l-2.925,21.074c-0.075,0.601-0.75,1.2-1.425,1.2h-2.4
		C332.523,205.956,331.849,205.356,331.773,204.756z"/>
</g>
</svg>
