<?xml version="1.0" encoding="utf-8"?>
<!-- Generator: Adobe Illustrator 16.0.0, SVG Export Plug-In . SVG Version: 6.00 Build 0)  -->
<!DOCTYPE svg PUBLIC "-//W3C//DTD SVG 1.1//EN" "http://www.w3.org/Graphics/SVG/1.1/DTD/svg11.dtd">
<svg version="1.1" id="DESTROY" xmlns="http://www.w3.org/2000/svg" xmlns:xlink="http://www.w3.org/1999/xlink" x="0px" y="0px"
	 width="400px" height="400px" viewBox="0 0 400 400" enable-background="new 0 0 400 400" xml:space="preserve">
<circle id="back" fill="#016699" cx="200" cy="200" r="194.322"/>
<g id="word">
	<path fill="#FFCD05" d="M30.044,175.076c0-0.753,0.603-1.431,1.355-1.431h17.846c14.533,0,26.43,11.823,26.43,26.28
		c0,14.608-11.897,26.43-26.43,26.43H31.399c-0.753,0-1.355-0.677-1.355-1.431V175.076z M48.341,217.168
		c9.789,0,16.942-6.928,16.942-17.243c0-10.24-7.153-17.168-16.942-17.168h-8.584v34.411H48.341z"/>
	<path fill="#FFCD05" d="M85.387,175.076c0-0.753,0.602-1.431,1.431-1.431h30.646c0.829,0,1.431,0.678,1.431,1.431v6.175
		c0,0.753-0.602,1.43-1.431,1.43H95.175v12.349h18.599c0.753,0,1.431,0.678,1.431,1.431v6.25c0,0.828-0.678,1.43-1.431,1.43H95.175
		v13.178h22.288c0.829,0,1.431,0.678,1.431,1.432v6.174c0,0.754-0.602,1.431-1.431,1.431H86.817c-0.829,0-1.431-0.677-1.431-1.431
		V175.076z"/>
	<path fill="#FFCD05" d="M126.197,221.234c-0.753-0.602-1.054-1.054-0.377-2.259l2.711-4.669c0.602-1.054,1.882-1.054,2.561-0.527
		c3.086,2.334,6.475,4.669,11.37,4.669c3.915,0,6.852-2.561,6.852-5.798c0-3.841-3.237-6.476-9.562-9.036
		c-7.079-2.861-14.157-7.379-14.157-16.264c0-6.702,4.97-14.457,16.943-14.457c7.681,0,13.554,3.915,15.06,5.045
		c0.753,0.452,0.979,1.731,0.451,2.484l-2.861,4.292c-0.602,0.903-1.732,1.506-2.636,0.903c-3.238-2.032-6.324-4.141-10.466-4.141
		c-4.292,0-6.626,2.41-6.626,5.271c0,3.539,2.787,5.948,8.886,8.433c7.304,2.937,15.738,7.303,15.738,17.017
		c0,7.756-6.702,14.909-17.32,14.909C133.275,227.107,128.381,223.117,126.197,221.234z"/>
	<path fill="#FFCD05" d="M177.926,182.681h-11.521c-0.828,0-1.43-0.677-1.43-1.43v-6.175c0-0.753,0.602-1.431,1.43-1.431h32.905
		c0.828,0,1.431,0.678,1.431,1.431v6.175c0,0.753-0.603,1.43-1.431,1.43h-11.521v42.243c0,0.754-0.678,1.431-1.43,1.431h-7.003
		c-0.752,0-1.431-0.677-1.431-1.431V182.681z"/>
	<path fill="#FFCD05" d="M209.099,175.076c0-0.753,0.603-1.431,1.431-1.431h21.535c9.035,0,16.415,7.229,16.415,16.19
		c0,6.927-4.593,12.574-11.145,15.21l10.316,19.126c0.527,0.979,0,2.184-1.28,2.184h-7.906c-0.678,0-1.054-0.377-1.205-0.677
		l-10.014-19.955h-8.359v19.201c0,0.754-0.677,1.431-1.43,1.431h-6.928c-0.828,0-1.431-0.677-1.431-1.431V175.076z M231.236,197.667
		c3.991,0,7.454-3.465,7.454-7.682c0-3.991-3.463-7.304-7.454-7.304h-12.273v14.985H231.236z"/>
	<path fill="#FFCD05" d="M282.738,172.893c15.061,0,27.108,12.123,27.108,27.182c0,15.061-12.048,27.032-27.108,27.032
		c-15.059,0-27.031-11.972-27.031-27.032C255.707,185.016,267.68,172.893,282.738,172.893z M282.738,217.318
		c9.488,0,17.319-7.755,17.319-17.243c0-9.487-7.831-17.394-17.319-17.394c-9.486,0-17.242,7.907-17.242,17.394
		C265.496,209.563,273.252,217.318,282.738,217.318z"/>
	<path fill="#FFCD05" d="M328.369,200.979l-17.168-25.149c-0.603-0.979,0-2.185,1.204-2.185h7.681c0.603,0,0.979,0.377,1.205,0.678
		l12.048,17.319l12.048-17.319c0.226-0.301,0.603-0.678,1.204-0.678h7.756c1.205,0,1.808,1.206,1.205,2.185l-17.394,25.075v24.02
		c0,0.754-0.678,1.431-1.432,1.431H329.8c-0.828,0-1.431-0.677-1.431-1.431V200.979z"/>
	<path fill="#FFCD05" d="M365.564,214.684c3.464,0,6.25,2.86,6.25,6.249s-2.786,6.175-6.25,6.175c-3.313,0-6.099-2.786-6.099-6.175
		S362.252,214.684,365.564,214.684z M363.005,204.669l-2.937-21.009v-8.584c0-0.753,0.678-1.431,1.431-1.431h8.283
		c0.753,0,1.43,0.678,1.43,1.431v8.433l-2.937,21.16c-0.075,0.603-0.753,1.204-1.431,1.204h-2.409
		C363.758,205.873,363.08,205.271,363.005,204.669z"/>
</g>
</svg>
