<?xml version="1.0" encoding="utf-8"?>
<!-- Generator: Adobe Illustrator 16.0.0, SVG Export Plug-In . SVG Version: 6.00 Build 0)  -->
<!DOCTYPE svg PUBLIC "-//W3C//DTD SVG 1.1//EN" "http://www.w3.org/Graphics/SVG/1.1/DTD/svg11.dtd">
<svg version="1.1" id="Capa_1" xmlns="http://www.w3.org/2000/svg" xmlns:xlink="http://www.w3.org/1999/xlink" x="0px" y="0px"
	 width="512px" height="512px" viewBox="0 0 512 512" enable-background="new 0 0 512 512" xml:space="preserve">
<g>
	<g>
		<path fill="#006699" d="M198.212,229.511c1.052,6.402,3.526,10.422,5.969,12.99c5.783,38.443,37.979,74.195,67.391,74.195
			c34.328,0,65.565-38.66,71.565-74.133c2.474-2.536,4.948-6.587,6.03-13.051c1.948-7.206,4.516-19.762,0.063-25.607
			c-0.217-0.31-0.526-0.588-0.681-0.866c4.113-15.124,9.371-46.422-9.371-67.73c-1.701-2.134-12.216-14.69-34.669-21.309
			l-10.701-3.711c-17.69-5.443-28.824-6.681-29.288-6.711c-0.804-0.062-1.64,0-2.413,0.186c-0.648,0.186-2.721,0.742-4.359,0.526
			c-4.238-0.619-10.578,1.546-11.691,1.979c-1.453,0.587-35.69,14.288-46.081,46.205c-0.959,2.567-5.134,16.144,0.402,49.391
			c-0.835,0.557-1.546,1.268-2.196,2.072C193.728,209.779,196.233,222.305,198.212,229.511z"/>
		<path fill="#006699" d="M381.332,328.973c0,0-1.392-0.464-3.525-1.145c-14.783-6.928-28.731-11.35-28.731-11.35
			c-3.03-1.021-5.629-2.072-8.041-3.186c-9.958-4.918-18.309-10.516-20.041-15.773c0,0,5.814,55.979-43.144,57.246l-6.772-0.309
			c-44.319-3.928-47.257-57.061-47.257-57.061c-4.639,14.566-60.37,31.515-60.37,31.515c-16.577,6.31-23.566,15.896-23.566,15.896
			c-24.494,36.37-27.371,117.183-27.371,117.183c0.309,18.495,8.289,20.412,8.289,20.412
			c56.318,25.113,144.708,29.536,144.708,29.536c4.764,0.123,9.217-0.124,13.639-0.402l0.094,0.464c0,0,88.39-4.484,144.708-29.598
			c0,0,7.979-1.948,8.319-20.35c0,0-2.907-80.844-27.401-117.184C404.899,344.776,397.879,335.281,381.332,328.973z"/>
		<path fill="#006699" d="M319.045,299.932c0.649-0.804,1.269-1.607,1.948-2.412c-0.123-0.525-0.154-0.804-0.154-0.804
			C320.282,297.891,319.664,298.787,319.045,299.932z"/>
		<path fill="#006699" d="M224.099,297.334l-0.155-0.588l-0.124,0.65c0.031-0.124,0.124-0.279,0.186-0.341
			C224.006,297.056,224.037,297.117,224.099,297.334z"/>
		<path fill="#006699" d="M270.057,0C137.193,0,29.072,108.122,29.072,240.985c0,26.257,4.577,52.329,12.896,77.071l-21.711-4.856
			c-8.567-2.01-17.01,3.434-18.927,12c-1.917,8.506,3.433,16.979,12,18.896l72.122,16.176c1.175,0.247,2.32,0.371,3.464,0.371
			c7.237,0,13.794-5.011,15.464-12.34l15.433-68.689c1.917-8.536-3.464-17.01-11.969-18.928c-8.629-1.887-17.01,3.433-18.928,11.969
			l-5.227,23.35c-5.227-17.721-8.196-36.092-8.196-55.019c0-107.317,87.308-194.594,194.595-194.594
			c107.286,0,194.594,87.308,194.594,194.594c0,32.38-8.104,64.39-23.443,92.535l40.763,22.174
			c18.989-34.979,29.04-74.596,29.04-114.708C511.041,108.122,402.92,0,270.057,0z"/>
	</g>
</g>
</svg>
