<?xml version="1.0" encoding="utf-8"?>
<!-- Generator: Adobe Illustrator 16.0.0, SVG Export Plug-In . SVG Version: 6.00 Build 0)  -->
<!DOCTYPE svg PUBLIC "-//W3C//DTD SVG 1.1//EN" "http://www.w3.org/Graphics/SVG/1.1/DTD/svg11.dtd">
<svg version="1.1" id="Capa_1" xmlns="http://www.w3.org/2000/svg" xmlns:xlink="http://www.w3.org/1999/xlink" x="0px" y="0px"
	 width="70px" height="70px" viewBox="0 0 70 70" enable-background="new 0 0 70 70" xml:space="preserve">
<g>
	<path fill="#FFFFFF" d="M68.478,34.197c1.246-1.371,1.127-3.468-0.267-4.688L37.518,2.651c-1.394-1.219-3.626-1.191-4.994,0.059
		L1.727,30.941c-1.363,1.25-1.43,3.347-0.148,4.681l0.772,0.8c1.282,1.336,3.352,1.495,4.624,0.355l2.301-2.059v30.175
		c0,1.854,1.5,3.352,3.352,3.352h12.005c1.849,0,3.351-1.498,3.351-3.352v-21.11h15.313v21.11c-0.029,1.854,1.299,3.35,3.146,3.35
		h12.724c1.852,0,3.35-1.496,3.35-3.35V35.142c0,0,0.637,0.555,1.42,1.247c0.783,0.688,2.43,0.135,3.676-1.234L68.478,34.197z"/>
</g>
</svg>
