<?xml version="1.0" encoding="utf-8"?>
<!-- Generator: Adobe Illustrator 16.0.0, SVG Export Plug-In . SVG Version: 6.00 Build 0)  -->
<!DOCTYPE svg PUBLIC "-//W3C//DTD SVG 1.1//EN" "http://www.w3.org/Graphics/SVG/1.1/DTD/svg11.dtd">
<svg version="1.1" id="Capa_1" xmlns="http://www.w3.org/2000/svg" xmlns:xlink="http://www.w3.org/1999/xlink" x="0px" y="0px"
	 width="300px" height="300px" viewBox="106 106 300 300" enable-background="new 106 106 300 300" xml:space="preserve">
<g>
	<path fill="#FFCC00" stroke="#016699" stroke-miterlimit="10" d="M256,387c72.35,0,131-58.651,131-131c0-72.349-58.65-131-131-131
		c-72.349,0-131,58.651-131,131C125,328.349,183.651,387,256,387z M256,149.563c58.783,0,106.438,47.654,106.438,106.438
		c0,58.783-47.654,106.438-106.438,106.438c-58.784,0-106.438-47.654-106.438-106.438C149.563,197.216,197.216,149.563,256,149.563z
		 M256,278.198c29.667,0,57.884-7.882,81.875-21.728c-3.729,45.655-39.179,81.405-81.875,81.405
		c-42.695,0-78.145-35.788-81.875-81.441C198.117,270.278,226.333,278.198,256,278.198z M190.5,215.063
		c0,13.565,7.331,24.563,16.375,24.563s16.375-10.997,16.375-24.563c0-13.566-7.331-24.563-16.375-24.563
		S190.5,201.497,190.5,215.063z M288.75,215.063c0,13.565,7.332,24.563,16.375,24.563s16.375-10.997,16.375-24.563
		c0-13.566-7.332-24.563-16.375-24.563S288.75,201.497,288.75,215.063z"/>
</g>
</svg>
