<?xml version="1.0" encoding="utf-8"?>
<!-- Generator: Adobe Illustrator 16.0.0, SVG Export Plug-In . SVG Version: 6.00 Build 0)  -->
<!DOCTYPE svg PUBLIC "-//W3C//DTD SVG 1.1//EN" "http://www.w3.org/Graphics/SVG/1.1/DTD/svg11.dtd">
<svg version="1.1" id="Capa_1" xmlns="http://www.w3.org/2000/svg" xmlns:xlink="http://www.w3.org/1999/xlink" x="0px" y="0px"
	 width="300px" height="300px" viewBox="106 106 300 300" enable-background="new 106 106 300 300" xml:space="preserve">
<g>
	<g id="Layer_5_58_">
		<g>
			<g>
				<path fill="#FFCC00" stroke="#016699" stroke-miterlimit="10" d="M327.7,200.374c-8.634-3.461-11.128-5.554-11.128-9.333
					c0-3.024,2.291-6.558,8.749-6.558c5.714,0,10.095,2.252,10.134,2.272c0.46,0.246,0.978,0.377,1.489,0.377
					c1.251,0,2.356-0.757,2.814-1.928l1.569-4.011c0.547-1.462-0.282-2.736-1.339-3.192c-3.518-1.531-10.392-2.716-10.462-2.729
					c-0.11-0.02-0.495-0.102-0.495-0.552l-0.022-5.819c0-1.753-1.464-3.179-3.26-3.179h-2.816c-1.794,0-3.256,1.426-3.256,3.18
					l0.007,6.118c0,0.469-0.509,0.673-0.694,0.716c-8.677,2.066-14.1,8.423-14.1,16.44c0,9.995,8.262,14.511,17.183,17.901
					c7.132,2.8,10.04,5.639,10.04,9.803c0,4.531-4.12,7.696-10.022,7.696c-5.04,0-11.861-3.195-11.929-3.228
					c-0.438-0.207-0.899-0.311-1.375-0.311c-1.298,0-2.428,0.785-2.88,2.001l-1.499,4.057c-0.532,1.515,0.287,2.745,1.338,3.292
					c4.188,2.182,12.295,3.46,12.656,3.517c0.097,0.014,0.59,0.188,0.59,0.639v6.091c0,1.753,1.464,3.179,3.261,3.179h2.909
					c1.798,0,3.261-1.426,3.261-3.179v-6.411c0-0.6,0.442-0.652,0.533-0.674c9.245-2.077,14.938-8.84,14.938-17.332
					C343.893,210.493,339.049,204.857,327.7,200.374z"/>
				<path fill="#FFCC00" stroke="#016699" stroke-miterlimit="10" d="M324.065,129.863c-42.197,0-76.402,34.207-76.402,76.402
					c0,42.196,34.205,76.404,76.402,76.404c42.196,0,76.402-34.208,76.402-76.404C400.468,164.07,366.262,129.863,324.065,129.863z
					 M324.065,264.964c-32.418,0-58.696-26.281-58.696-58.697s26.278-58.696,58.696-58.696c32.417,0,58.693,26.28,58.693,58.696
					S356.482,264.964,324.065,264.964z"/>
			</g>
			<g>
				<path fill="#FFCC00" stroke="#016699" stroke-miterlimit="10" d="M384.943,319.693c-16.247,8.967-38.593,17.258-60.878,20.754
					c-19.825,3.108-57.125-4.391-57.125-13.246c0-3.355,32.713,8.27,52.501,2.99c15.175-4.049,13.021-18.243,4.767-20.116
					c-8.205-1.862-56.278-19.474-76.813-20.081c-9.673-0.285-33.555,3.364-45.11,5.246c-3.959,0.645-6.441,0.573-6.688,4.361
					c-1.15,17.607-3.416,53.612-4.652,72.419c-0.026,0.398,0.526,5.741,4.936,1.98c4.827-4.115,11.596-8.678,17.858-7.258
					c9.823,2.229,94.812,17.799,106.535,15.074c16.77-3.897,64.243-32.032,73.346-40.777
					C407.728,327.483,396.76,313.171,384.943,319.693z"/>
				<path fill="#FFCC00" stroke="#016699" stroke-miterlimit="10" d="M172.143,294.554l-44.523-2.194
					c-3.438-0.168-6.948,2.422-7.803,5.756l-8.095,73.499c-0.854,3.335,1.262,6.173,4.701,6.306l49.342-0.006
					c3.44,0.133,6.468-2.565,6.732-5.997l5.418-70.816C178.178,297.67,175.58,294.723,172.143,294.554z M145.932,368.177
					c-6.799,0-12.311-5.512-12.311-12.31c0-6.8,5.512-12.311,12.311-12.311s12.31,5.512,12.31,12.311
					S152.73,368.177,145.932,368.177z"/>
			</g>
		</g>
	</g>
</g>
</svg>
