<?xml version="1.0" encoding="utf-8"?>
<!-- Generator: Adobe Illustrator 16.0.0, SVG Export Plug-In . SVG Version: 6.00 Build 0)  -->
<!DOCTYPE svg PUBLIC "-//W3C//DTD SVG 1.1//EN" "http://www.w3.org/Graphics/SVG/1.1/DTD/svg11.dtd">
<svg version="1.1" id="Capa_1" xmlns="http://www.w3.org/2000/svg" xmlns:xlink="http://www.w3.org/1999/xlink" x="0px" y="0px"
	 width="300px" height="300px" viewBox="106 106 300 300" enable-background="new 106 106 300 300" xml:space="preserve">
<g>
	<g>
		<path fill="#FFCC00" stroke="#006699" stroke-miterlimit="10" d="M289.125,255.128c-3.266-3.265-7.417-6.022-12.395-8.209
			c-4.628-2.028-9.668-3.043-14.518-4.025c-6.34-1.268-12.395-2.504-16.356-5.801c-0.571-0.476-1.11-1.014-1.585-1.585
			c-1.585-1.902-2.346-4.342-2.346-7.386c0-3.075,0.919-5.547,2.885-7.766c1.553-1.743,3.867-3.074,6.466-3.835
			c1.49-0.413,3.043-0.634,4.66-0.634c4.089,0,7.734,1.426,9.953,3.899c1.648,1.838,2.821,4.881,3.424,8.844
			c0.38,2.599,2.631,4.47,5.198,4.47c0.254,0,0.508-0.032,0.793-0.063l16.895-2.536c2.854-0.413,4.818-3.075,4.438-5.928l0,0
			c-1.458-10.302-5.864-18.575-13.092-24.598c-3.708-3.075-8.368-5.452-13.599-7.005v-8.178c0-2.917-2.346-5.262-5.262-5.262H251.34
			h-3.772c-2.916,0-5.262,2.346-5.262,5.262v8.051c-5.769,1.617-10.809,4.248-14.771,7.703
			c-8.336,7.291-12.584,16.927-12.584,28.592c0,3.297,0.381,6.436,1.109,9.415c0.729,2.979,1.807,5.769,3.233,8.4
			c2.948,5.389,7.196,9.667,12.647,12.711c7.703,4.312,15.184,6.213,23.425,8.051c5.453,1.236,11.443,3.012,14.549,6.784
			c1.427,1.774,2.187,4.374,2.187,7.702c0,4.152-1.141,7.513-3.518,10.207c-2.22,2.536-5.452,4.217-9.098,4.786
			c-0.856,0.127-1.775,0.191-2.662,0.191c-5.199,0-10.049-2.188-12.902-5.897c-1.332-1.711-3.17-5.356-4.248-12.996
			c-0.38-2.63-2.631-4.501-5.198-4.501c-0.285,0-0.603,0.032-0.919,0.063l-16.515,2.886c-2.663,0.475-4.533,2.853-4.343,5.546
			c0.57,8.146,2.758,15.248,6.435,21.048c3.741,5.896,8.337,10.271,13.63,12.996c3.011,1.554,6.213,2.79,9.605,3.71v6.783
			c0,2.915,2.345,5.262,5.262,5.262h17.118c2.916,0,5.262-2.346,5.262-5.262v-6.467c7.322-2.029,13.726-5.77,18.639-10.937
			c7.196-7.575,10.841-17.054,10.841-28.242c0-5.104-0.887-9.953-2.631-14.392C295.021,262.451,292.453,258.457,289.125,255.128z"/>
		<g>
			<g>
				<path fill="#FFCC00" stroke="#006699" stroke-miterlimit="10" d="M383.84,182.919l12.489-11.918
					c4.405-4.216,2.6-11.633-3.233-13.345l-72.24-21.174c-5.865-1.711-11.38,3.55-9.922,9.478l17.751,73.128
					c1.427,5.928,8.749,8.083,13.187,3.867l10.365-9.89c3.804,9.827,6.276,20.16,7.387,30.906c2.06,19.717-0.729,39.75-8.115,58.008
					c-6.213,15.374-15.659,29.447-27.515,41.113c-2.979,2.948-3.201,7.702-0.443,10.872l16.641,19.178
					c2.98,3.424,8.211,3.646,11.508,0.508c16.419-15.818,29.479-35.091,38.038-56.171c9.922-24.471,13.662-51.351,10.903-77.787
					C398.516,219.626,392.874,200.607,383.84,182.919z"/>
			</g>
			<path fill="#FFCC00" stroke="#006699" stroke-miterlimit="10" d="M128.161,329.081L115.671,341
				c-4.406,4.215-2.599,11.633,3.233,13.345l72.241,21.175c5.864,1.711,11.38-3.551,9.922-9.478l-17.751-73.129
				c-1.427-5.928-8.749-8.083-13.187-3.867l-10.365,9.89c-3.804-9.826-6.276-20.16-7.386-30.905
				c-2.06-19.716,0.729-39.75,8.115-58.008c6.213-15.374,15.659-29.448,27.514-41.113c2.98-2.948,3.202-7.703,0.444-10.873
				l-16.642-19.178c-2.979-3.423-8.21-3.645-11.506-0.507c-16.42,15.817-29.479,35.09-38.038,56.169
				c-9.922,24.471-13.662,51.352-10.904,77.787C113.484,292.374,119.126,311.394,128.161,329.081z"/>
		</g>
	</g>
</g>
</svg>
