<?xml version="1.0" encoding="utf-8"?>
<!-- Generator: Adobe Illustrator 16.0.0, SVG Export Plug-In . SVG Version: 6.00 Build 0)  -->
<!DOCTYPE svg PUBLIC "-//W3C//DTD SVG 1.1//EN" "http://www.w3.org/Graphics/SVG/1.1/DTD/svg11.dtd">
<svg version="1.1" id="Capa_1" xmlns="http://www.w3.org/2000/svg" xmlns:xlink="http://www.w3.org/1999/xlink" x="0px" y="0px"
	 width="75px" height="63px" viewBox="0 0 75 63" enable-background="new 0 0 75 63" xml:space="preserve">
<g>
	<g>
		<path fill="#FFCC00" d="M37.5,0.773c-20.422,0-36.977,16.555-36.977,36.977c0,8.898,3.145,17.064,8.383,23.445
			c0.808-6.471,7.271-11.942,16.332-14.534c3.31,3.084,7.586,4.955,12.262,4.955c4.564,0,8.758-1.776,12.034-4.731
			c9.141,2.818,15.463,8.61,15.671,15.342c5.766-6.521,9.271-15.086,9.271-24.477C74.477,17.328,57.923,0.773,37.5,0.773z
			 M37.5,47.236c-2.359,0-4.585-0.646-6.561-1.771c-4.76-2.708-8.037-8.249-8.037-14.646c0-9.055,6.548-16.422,14.597-16.422
			s14.597,7.367,14.597,16.422c0,6.496-3.38,12.105-8.258,14.77C41.917,46.633,39.773,47.236,37.5,47.236z"/>
	</g>
</g>
</svg>
