<?xml version="1.0" encoding="utf-8"?>
<!-- Generator: Adobe Illustrator 16.0.0, SVG Export Plug-In . SVG Version: 6.00 Build 0)  -->
<!DOCTYPE svg PUBLIC "-//W3C//DTD SVG 1.1//EN" "http://www.w3.org/Graphics/SVG/1.1/DTD/svg11.dtd">
<svg version="1.1" id="Capa_1" xmlns="http://www.w3.org/2000/svg" xmlns:xlink="http://www.w3.org/1999/xlink" x="0px" y="0px"
	 width="29px" height="29px" viewBox="17.5 17.5 29 29" enable-background="new 17.5 17.5 29 29" xml:space="preserve">
<g>
	<g>
		<path fill="#006699" d="M32,20.419c-6.396,0-11.58,5.185-11.58,11.581c0,4.609,2.699,8.576,6.596,10.44l0.363-7.004
			c0,0-0.682-0.225-0.831-0.297c-1.446-0.638-2.497-2.513-2.497-4.947c0-2.656,2.06-4.944,4.052-4.963c0.002,0,0.002,0,0.004,0
			c0.001,0,0.002,0,0.003,0c1.992,0.019,4.052,2.307,4.052,4.963c0,2.434-1.052,4.308-2.495,4.947
			c-0.011,0.005-0.837,0.306-0.837,0.306l0.405,7.786c0.888,0.219,1.812,0.347,2.768,0.347c1.289,0,2.523-0.219,3.682-0.607
			l0.358-6.939c-0.946-0.209-1.752-0.81-2.257-1.565c-0.627-0.937,0.481-9.237,0.481-9.237h0.721v7.79h0.716v-7.789h0.784v7.79
			h0.711v-7.79h0.813v7.79h0.715v-7.79h0.553c0,0,1.108,8.3,0.481,9.238c-0.502,0.747-1.3,1.347-2.233,1.561
			c-0.017,0.005-0.031,0.011-0.031,0.011l0.312,5.969c3.45-2.005,5.773-5.73,5.773-10.008C43.579,25.604,38.396,20.419,32,20.419z"
			/>
		<path fill="#006699" d="M25.746,29.016c0.042-0.169,0.098-0.329,0.1-0.333c0.018-0.063-0.016-0.127-0.084-0.168
			c-0.065-0.036-0.145-0.018-0.181,0.039c0,0-0.08,0.126-0.195,0.313c-0.093,0.161-0.231,0.417-0.326,0.737
			c-0.081,0.28-0.179,0.652-0.223,1.068c-0.019,0.219-0.023,0.416-0.016,0.619c0.016,0.232,0.051,0.43,0.119,0.657
			c0.227,0.647,0.402,1.273,1.034,1.89c0.2,0.206,0.406,0.346,0.554,0.449l0.052,0.035c0.032,0.021,0.063,0.041,0.093,0.059
			c0.125,0.065,0.208,0.09,0.223,0.093c0.062,0.017,0.126-0.015,0.152-0.063c0.024-0.053,0.006-0.12-0.045-0.161
			c0,0-0.071-0.063-0.164-0.181c-0.063-0.071-0.132-0.174-0.212-0.29c-0.056-0.083-0.124-0.177-0.185-0.267
			c-0.308-0.47-0.486-1.125-0.732-1.798c-0.047-0.146-0.087-0.335-0.102-0.495c-0.02-0.186-0.029-0.363-0.029-0.529
			c-0.007-0.384,0.01-0.715,0.043-0.982C25.661,29.403,25.69,29.176,25.746,29.016z"/>
		<path fill="#006699" d="M32,18.269c-7.57,0-13.731,6.16-13.731,13.731c0,7.569,6.161,13.73,13.731,13.73
			c7.571,0,13.73-6.161,13.73-13.73C45.73,24.429,39.571,18.269,32,18.269z M32,44.706c-7.006,0-12.708-5.699-12.708-12.706
			S24.994,19.292,32,19.292S44.708,24.993,44.708,32S39.007,44.706,32,44.706z"/>
	</g>
</g>
</svg>
