<?xml version="1.0" encoding="utf-8"?>
<!-- Generator: Adobe Illustrator 16.0.0, SVG Export Plug-In . SVG Version: 6.00 Build 0)  -->
<!DOCTYPE svg PUBLIC "-//W3C//DTD SVG 1.1//EN" "http://www.w3.org/Graphics/SVG/1.1/DTD/svg11.dtd">
<svg version="1.1" id="Capa_1" xmlns="http://www.w3.org/2000/svg" xmlns:xlink="http://www.w3.org/1999/xlink" x="0px" y="0px"
	 width="512px" height="512px" viewBox="0 0 512 512" enable-background="new 0 0 512 512" xml:space="preserve">
<g>
	<g>
		<circle fill="#006699" cx="232.735" cy="168.112" r="79.458"/>
		<path fill="#006699" d="M129.765,390.606l55.909,14.727c24.25,6.381,63.309,5.633,87.294-1.686l22.61-6.934
			c12.709,15.041,31.671,24.631,52.86,24.631c38.161,0,69.212-31.051,69.212-69.211c0-38.174-31.051-69.223-69.212-69.223
			c-6.467,0-12.697,0.961-18.635,2.623c-14.349-17.352-32.771-30.486-55.409-37.856c-13.187,7.738-28.461,12.249-44.823,12.249
			c-16.437,0-31.798-4.557-45.024-12.363c-42.27,13.244-72.203,45.381-87.898,87.449C87.864,358.509,105.515,384.22,129.765,390.606
			z M348.261,292.007c32.977,0,59.707,26.729,59.707,59.719c0,32.977-26.73,59.713-59.707,59.713
			c-32.979,0-59.714-26.73-59.714-59.713C288.554,318.735,315.276,292.007,348.261,292.007z"/>
		<path fill="#006699" d="M314.822,382.276c2.1,2.311,4.982,3.473,7.882,3.473c2.565,0,5.154-0.92,7.197-2.789l18.353-16.777
			l18.348,16.777c2.048,1.869,4.631,2.789,7.197,2.789c2.889,0,5.771-1.166,7.882-3.473c3.976-4.346,3.67-11.105-0.679-15.08
			l-16.933-15.482l16.933-15.482c4.349-3.975,4.654-10.723,0.679-15.078s-10.725-4.648-15.079-0.68l-18.348,16.787l-18.353-16.787
			c-4.355-3.975-11.098-3.672-15.079,0.68c-3.975,4.355-3.676,11.104,0.68,15.078l16.938,15.482l-16.938,15.482
			C311.151,371.171,310.853,377.931,314.822,382.276z"/>
	</g>
</g>
<path fill="#006699" d="M512.005,256c0,141.385-114.615,256-256,256c-141.385,0-256-114.615-256-256S114.62,0,256.004,0
	C397.39,0,512.005,114.615,512.005,256z M256.004,39.833C136.619,39.833,39.837,136.614,39.837,256s96.781,216.167,216.167,216.167
	c119.386,0,216.167-96.781,216.167-216.167S375.391,39.833,256.004,39.833z"/>
</svg>
