<?xml version="1.0" encoding="utf-8"?>
<!-- Generator: Adobe Illustrator 16.0.0, SVG Export Plug-In . SVG Version: 6.00 Build 0)  -->
<!DOCTYPE svg PUBLIC "-//W3C//DTD SVG 1.1//EN" "http://www.w3.org/Graphics/SVG/1.1/DTD/svg11.dtd">
<svg version="1.1" id="Capa_1" xmlns="http://www.w3.org/2000/svg" xmlns:xlink="http://www.w3.org/1999/xlink" x="0px" y="0px"
	 width="600px" height="267px" viewBox="-44.75 -0.09 600 267" enable-background="new -44.75 -0.09 600 267" xml:space="preserve">
<g>
	<path fill="#006699" d="M554.5,28.562l-34.477,135.5l-77.684-62.181L554.5,28.562z M549.209,0H217.107h-11.273l132.534,116.121
		L549.209,0z M196.684,24.417l-32.859,126.4l92.208-70.926L196.684,24.417z M339.059,157.237c-1.701,1.146-3.842,1.753-5.881,1.753
		s-4.077-0.59-5.847-1.753l-60.344-50.25l-113.729,88.115c-0.91,0.658-1.854,1.162-2.916,1.516v1.162l-19.092,69.039H495.42
		l15.807-70.236l0.657-3.353l-95.243-77.178L339.059,157.237z M156.292,140.419H-25.852l-10.649,20.425l186.979,0.404
		L156.292,140.419z M-44,260.837l165.713,0.691l6.269-20.475l-162.293-0.656L-44,260.837z M136.189,207.369l5.443-20.491H24.601
		l-7.886,20.491H136.189z"/>
</g>
</svg>
