<?xml version="1.0" encoding="utf-8"?>
<!-- Generator: Adobe Illustrator 16.0.0, SVG Export Plug-In . SVG Version: 6.00 Build 0)  -->
<!DOCTYPE svg PUBLIC "-//W3C//DTD SVG 1.1//EN" "http://www.w3.org/Graphics/SVG/1.1/DTD/svg11.dtd">
<svg version="1.1" id="Capa_1" xmlns="http://www.w3.org/2000/svg" xmlns:xlink="http://www.w3.org/1999/xlink" x="0px" y="0px"
	 width="40px" height="40px" viewBox="0 0 40 40" enable-background="new 0 0 40 40" xml:space="preserve">
<g>
	<path fill="#006699" d="M39.097,20.579c0.711-0.782,0.643-1.979-0.152-2.674L21.437,2.585c-0.795-0.695-2.069-0.68-2.849,0.033
		L1.021,18.722c-0.777,0.713-0.815,1.909-0.084,2.67l0.44,0.457c0.731,0.762,1.912,0.853,2.638,0.202l1.313-1.175v17.213
		C5.327,39.146,6.183,40,7.239,40h6.848c1.055,0,1.911-0.854,1.911-1.911V26.047h8.735v12.042c-0.017,1.057,0.74,1.91,1.795,1.91
		h7.258c1.056,0,1.91-0.854,1.91-1.91V21.118c0,0,0.363,0.316,0.811,0.711c0.446,0.393,1.385,0.077,2.096-0.704L39.097,20.579z"/>
</g>
</svg>
