<?xml version="1.0" encoding="utf-8"?>
<!-- Generator: Adobe Illustrator 16.0.0, SVG Export Plug-In . SVG Version: 6.00 Build 0)  -->
<!DOCTYPE svg PUBLIC "-//W3C//DTD SVG 1.1//EN" "http://www.w3.org/Graphics/SVG/1.1/DTD/svg11.dtd">
<svg version="1.1" id="Capa_1" xmlns="http://www.w3.org/2000/svg" xmlns:xlink="http://www.w3.org/1999/xlink" x="0px" y="0px"
	 width="40px" height="40px" viewBox="236 236 40 40" enable-background="new 236 236 40 40" xml:space="preserve">
<g>
	<path fill="#006699" d="M275.097,256.578c0.711-0.782,0.643-1.979-0.152-2.674l-17.508-15.32c-0.795-0.695-2.069-0.68-2.848,0.033
		l-17.567,16.104c-0.778,0.713-0.816,1.909-0.084,2.67l0.44,0.457c0.731,0.762,1.912,0.852,2.637,0.202l1.313-1.175v17.213
		c0,1.057,0.856,1.911,1.912,1.911h6.848c1.055,0,1.911-0.854,1.911-1.911v-12.042h8.735v12.042c-0.016,1.056,0.74,1.91,1.796,1.91
		h7.257c1.056,0,1.911-0.854,1.911-1.91v-16.971c0,0,0.363,0.317,0.81,0.711c0.446,0.393,1.385,0.077,2.095-0.704L275.097,256.578z"
		/>
</g>
</svg>
