<?xml version="1.0" encoding="utf-8"?>
<!-- Generator: Adobe Illustrator 16.0.0, SVG Export Plug-In . SVG Version: 6.00 Build 0)  -->
<!DOCTYPE svg PUBLIC "-//W3C//DTD SVG 1.1//EN" "http://www.w3.org/Graphics/SVG/1.1/DTD/svg11.dtd">
<svg version="1.1" id="Capa_1" xmlns="http://www.w3.org/2000/svg" xmlns:xlink="http://www.w3.org/1999/xlink" x="0px" y="0px"
	 width="50px" height="50px" viewBox="-13 -13 50 50" enable-background="new -13 -13 50 50" xml:space="preserve">
<g>
	<path fill="#006699" d="M21.351-0.658v-7.866c0-1.254-1.023-2.28-2.277-2.28H-9.046c-1.253,0.002-2.279,1.026-2.279,2.28v1.481
		v29.715v1.024c0,0.838,0.493,1.633,1.215,2.017l17.327,8.965c0.76,0.378,1.671-0.151,1.671-1.026v-8.74h10.186
		c1.252,0,2.277-1.022,2.277-2.277V10.17h-4.562v9.042c0,0.647-0.493,1.141-1.139,1.141H8.925V8.649V1.242V1.015
		C8.925,0.179,8.431-0.619,7.71-1L-2.51-6.241h18.163c0.646,0,1.139,0.494,1.139,1.139v4.484h4.56V-0.658z"/>
	<path fill="#006699" d="M27.205-4.382l7.406,7.41c0.951,0.951,0.951,2.356,0,3.307l-7.406,7.409
		c-0.951,0.949-2.396,0.987-3.345,0.04c-0.913-0.911-0.802-2.432,0.076-3.344l3.341-3.306H14.323c-0.646,0-1.294-0.267-1.711-0.76
		c-1.063-1.139-0.799-3.153,0.568-3.914c0.344-0.191,0.763-0.305,1.143-0.305H27.28c0,0-3.307-3.307-3.344-3.307
		c-0.874-0.874-0.989-2.432-0.076-3.306C24.771-5.369,26.254-5.332,27.205-4.382z"/>
</g>
</svg>
