<?xml version="1.0" encoding="utf-8"?>
<!-- Generator: Adobe Illustrator 16.0.0, SVG Export Plug-In . SVG Version: 6.00 Build 0)  -->
<!DOCTYPE svg PUBLIC "-//W3C//DTD SVG 1.1//EN" "http://www.w3.org/Graphics/SVG/1.1/DTD/svg11.dtd">
<svg version="1.1" id="Capa_1" xmlns="http://www.w3.org/2000/svg" xmlns:xlink="http://www.w3.org/1999/xlink" x="0px" y="0px"
	 width="35px" height="35px" viewBox="-5.5 -5.501 35 35" enable-background="new -5.5 -5.501 35 35" xml:space="preserve">
<g>
	<path fill="#FFFFFF" d="M18.856,2.281v-6.033c0-0.962-0.763-1.749-1.698-1.749h-20.96C-4.735-5.499-5.5-4.714-5.5-3.752v1.136
		v22.791v0.786c0,0.644,0.367,1.253,0.906,1.546l12.916,6.876c0.566,0.29,1.246-0.115,1.246-0.787v-6.703h7.592
		c0.933,0,1.698-0.783,1.698-1.747v-9.56h-3.401v6.935c0,0.496-0.367,0.875-0.849,0.875H9.593V9.419V3.738V3.564
		c0-0.642-0.368-1.254-0.905-1.545L1.07-2.001h13.539c0.481,0,0.849,0.379,0.849,0.874v3.439h3.399L18.856,2.281L18.856,2.281z"/>
	<path fill="#FFFFFF" d="M23.219-0.575l5.521,5.683c0.708,0.729,0.708,1.807,0,2.537l-5.521,5.683
		c-0.709,0.728-1.786,0.757-2.493,0.031c-0.68-0.699-0.598-1.865,0.057-2.565l2.49-2.536h-9.655c-0.481,0-0.964-0.204-1.275-0.582
		c-0.793-0.874-0.596-2.418,0.423-3.002c0.256-0.146,0.568-0.234,0.852-0.234h9.657c0,0-2.463-2.536-2.491-2.536
		c-0.652-0.671-0.737-1.866-0.057-2.536C21.405-1.333,22.51-1.304,23.219-0.575z"/>
</g>
</svg>
