<?xml version="1.0" encoding="utf-8"?>
<!-- Generator: Adobe Illustrator 16.0.0, SVG Export Plug-In . SVG Version: 6.00 Build 0)  -->
<!DOCTYPE svg PUBLIC "-//W3C//DTD SVG 1.1//EN" "http://www.w3.org/Graphics/SVG/1.1/DTD/svg11.dtd">
<svg version="1.1" id="Capa_1" xmlns="http://www.w3.org/2000/svg" xmlns:xlink="http://www.w3.org/1999/xlink" x="0px" y="0px"
	 width="75px" height="63px" viewBox="218.5 224.5 75 63" enable-background="new 218.5 224.5 75 63" xml:space="preserve">
<g>
	<g>
		<path fill="#FFCC00" d="M256,225.273c-20.422,0-36.977,16.555-36.977,36.977c0,8.899,3.145,17.064,8.383,23.445
			c0.808-6.471,7.271-11.942,16.332-14.534c3.31,3.084,7.586,4.955,12.262,4.955c4.565,0,8.758-1.776,12.034-4.731
			c9.141,2.818,15.463,8.61,15.671,15.342c5.765-6.521,9.271-15.087,9.271-24.477C292.977,241.828,276.423,225.273,256,225.273z
			 M256,271.737c-2.36,0-4.585-0.647-6.56-1.771c-4.76-2.708-8.037-8.249-8.037-14.648c0-9.055,6.547-16.421,14.596-16.421
			s14.596,7.367,14.596,16.421c0,6.497-3.379,12.107-8.257,14.769C260.417,271.133,258.273,271.737,256,271.737z"/>
	</g>
</g>
</svg>
