<?xml version="1.0" encoding="utf-8"?>
<!-- Generator: Adobe Illustrator 16.0.0, SVG Export Plug-In . SVG Version: 6.00 Build 0)  -->
<!DOCTYPE svg PUBLIC "-//W3C//DTD SVG 1.1//EN" "http://www.w3.org/Graphics/SVG/1.1/DTD/svg11.dtd">
<svg version="1.1" id="Capa_1" xmlns="http://www.w3.org/2000/svg" xmlns:xlink="http://www.w3.org/1999/xlink" x="0px" y="0px"
	 width="35px" height="35px" viewBox="-1.5 -1.5 35 35" enable-background="new -1.5 -1.5 35 35" xml:space="preserve">
<g id="Settings">
	<g>
		<path fill="#FFCC00" d="M33.389,14.021c-0.055-0.491-0.627-0.86-1.123-0.86c-1.604,0-3.027-0.939-3.625-2.392
			c-0.608-1.488-0.216-3.224,0.98-4.317c0.375-0.343,0.421-0.917,0.104-1.316c-0.82-1.04-1.754-1.979-2.771-2.793
			c-0.399-0.319-0.984-0.275-1.331,0.108c-1.043,1.152-2.916,1.581-4.365,0.978c-1.505-0.632-2.456-2.155-2.364-3.791
			c0.032-0.513-0.346-0.96-0.857-1.02c-1.308-0.151-2.626-0.156-3.938-0.01c-0.507,0.056-0.883,0.492-0.867,0.999
			c0.058,1.619-0.904,3.115-2.396,3.725c-1.43,0.583-3.291,0.158-4.332-0.984C6.16,1.97,5.584,1.924,5.184,2.235
			C4.135,3.057,3.181,3.996,2.353,5.028C2.029,5.429,2.077,6.01,2.457,6.355c1.218,1.1,1.611,2.851,0.979,4.356
			c-0.604,1.435-2.099,2.36-3.808,2.36c-0.555-0.018-0.95,0.354-1.011,0.857c-0.154,1.312-0.156,2.648-0.008,3.97
			c0.055,0.491,0.646,0.858,1.148,0.858c1.523-0.038,2.987,0.901,3.6,2.391c0.612,1.49,0.219,3.225-0.979,4.318
			c-0.374,0.343-0.422,0.916-0.106,1.314c0.813,1.034,1.746,1.974,2.769,2.796c0.401,0.322,0.984,0.277,1.332-0.106
			c1.047-1.154,2.92-1.583,4.362-0.978c1.51,0.631,2.46,2.152,2.368,3.789c-0.031,0.514,0.348,0.961,0.859,1.019
			c0.668,0.079,1.341,0.117,2.016,0.117c0.641,0,1.281-0.034,1.921-0.106c0.508-0.056,0.885-0.49,0.867-1
			c-0.061-1.617,0.903-3.113,2.395-3.723c1.439-0.586,3.292-0.158,4.332,0.984c0.347,0.375,0.919,0.42,1.322,0.111
			c1.047-0.821,1.998-1.761,2.831-2.794c0.323-0.399,0.277-0.983-0.104-1.326c-1.218-1.102-1.612-2.852-0.981-4.356
			c0.598-1.415,2.035-2.365,3.582-2.365l0.215,0.004c0.503,0.041,0.964-0.345,1.025-0.854
			C33.537,16.679,33.539,15.343,33.389,14.021z M16.027,21.819c-3.219,0-5.837-2.613-5.837-5.824c0-3.211,2.619-5.823,5.837-5.823
			c3.22,0,5.837,2.612,5.837,5.823C21.864,19.206,19.247,21.819,16.027,21.819z"/>
	</g>
</g>
</svg>
