<?xml version="1.0" encoding="utf-8"?>
<!-- Generator: Adobe Illustrator 16.0.0, SVG Export Plug-In . SVG Version: 6.00 Build 0)  -->
<!DOCTYPE svg PUBLIC "-//W3C//DTD SVG 1.1//EN" "http://www.w3.org/Graphics/SVG/1.1/DTD/svg11.dtd">
<svg version="1.1" id="Layer_1" xmlns="http://www.w3.org/2000/svg" xmlns:xlink="http://www.w3.org/1999/xlink" x="0px" y="0px"
	 width="28px" height="38px" viewBox="0 0 28 38" enable-background="new 0 0 28 38" xml:space="preserve">
<g>
	<path fill="#FFCD05" d="M23.877,22.935c0.745-0.746,1.92-0.746,2.666,0c0.722,0.746,0.722,1.921,0,2.666L15.37,36.776
		c-0.347,0.347-0.826,0.56-1.359,0.56c-0.533,0-1.014-0.213-1.361-0.56L1.475,25.601c-0.746-0.745-0.746-1.92,0-2.666
		c0.746-0.746,1.92-0.746,2.667,0l7.975,8.002V2.53c-0.002-1.04,0.852-1.867,1.892-1.867c1.04,0,1.867,0.827,1.867,1.867v28.405
		L23.877,22.935z"/>
	<g>
	</g>
	<g>
	</g>
	<g>
	</g>
	<g>
	</g>
	<g>
	</g>
	<g>
	</g>
	<g>
	</g>
	<g>
	</g>
	<g>
	</g>
	<g>
	</g>
	<g>
	</g>
	<g>
	</g>
	<g>
	</g>
	<g>
	</g>
	<g>
	</g>
</g>
</svg>
