<?xml version="1.0" encoding="utf-8"?>
<!-- Generator: Adobe Illustrator 16.0.0, SVG Export Plug-In . SVG Version: 6.00 Build 0)  -->
<!DOCTYPE svg PUBLIC "-//W3C//DTD SVG 1.1//EN" "http://www.w3.org/Graphics/SVG/1.1/DTD/svg11.dtd">
<svg version="1.1" id="Capa_1" xmlns="http://www.w3.org/2000/svg" xmlns:xlink="http://www.w3.org/1999/xlink" x="0px" y="0px"
	 width="29px" height="29px" viewBox="17.5 17.5 29 29" enable-background="new 17.5 17.5 29 29" xml:space="preserve">
<g>
	<g>
		<path fill="#FFCC00" d="M32.001,20.614c-6.289,0-11.386,5.097-11.386,11.386c0,4.531,2.653,8.432,6.485,10.265l0.356-6.887
			c0,0-0.67-0.22-0.817-0.291c-1.422-0.627-2.455-2.471-2.455-4.864c0-2.612,2.025-4.861,3.983-4.879c0.002,0,0.002,0,0.004,0
			c0,0,0.002,0,0.003,0c1.958,0.019,3.984,2.268,3.984,4.879c0,2.393-1.034,4.237-2.453,4.864c-0.011,0.005-0.824,0.3-0.824,0.3
			l0.398,7.656c0.874,0.215,1.781,0.341,2.721,0.341c1.267,0,2.481-0.216,3.62-0.597l0.353-6.824
			c-0.93-0.204-1.722-0.796-2.219-1.538c-0.615-0.922,0.474-9.082,0.474-9.082h0.709V33h0.703v-7.656h0.77v7.658h0.701v-7.658h0.798
			v7.658h0.703v-7.658h0.544c0,0,1.089,8.16,0.473,9.082c-0.492,0.735-1.277,1.325-2.195,1.534
			c-0.017,0.006-0.031,0.012-0.031,0.012l0.307,5.869c3.392-1.972,5.678-5.636,5.678-9.841
			C43.386,25.711,38.289,20.614,32.001,20.614z"/>
		<path fill="#FFCC00" d="M25.852,29.065c0.041-0.166,0.096-0.324,0.098-0.327c0.018-0.063-0.016-0.125-0.083-0.166
			c-0.064-0.035-0.143-0.017-0.179,0.039c0,0-0.078,0.124-0.191,0.308c-0.092,0.158-0.228,0.41-0.32,0.724
			c-0.081,0.275-0.176,0.641-0.22,1.051c-0.019,0.215-0.022,0.409-0.016,0.609c0.016,0.228,0.051,0.422,0.117,0.646
			c0.224,0.635,0.396,1.251,1.018,1.859c0.196,0.201,0.398,0.339,0.544,0.44l0.051,0.036c0.031,0.021,0.062,0.04,0.091,0.057
			c0.122,0.064,0.204,0.088,0.219,0.091c0.061,0.017,0.124-0.013,0.15-0.063c0.024-0.052,0.006-0.117-0.044-0.158
			c0,0-0.071-0.062-0.162-0.177c-0.063-0.07-0.13-0.172-0.208-0.286c-0.056-0.081-0.121-0.173-0.182-0.262
			c-0.303-0.462-0.478-1.107-0.719-1.768c-0.047-0.143-0.086-0.329-0.101-0.487c-0.02-0.182-0.028-0.357-0.028-0.521
			c-0.007-0.378,0.01-0.703,0.042-0.966C25.767,29.447,25.797,29.224,25.852,29.065z"/>
		<path fill="#FFCC00" d="M32.001,18.5C24.558,18.5,18.5,24.556,18.5,32c0,7.442,6.058,13.5,13.501,13.5
			C39.443,45.5,45.5,39.442,45.5,32C45.5,24.556,39.443,18.5,32.001,18.5z M32.001,44.493c-6.89,0-12.495-5.604-12.495-12.493
			c0-6.889,5.605-12.494,12.495-12.494c6.889,0,12.494,5.605,12.494,12.494C44.495,38.889,38.89,44.493,32.001,44.493z"/>
	</g>
</g>
</svg>
