<?xml version="1.0" encoding="utf-8"?>
<!-- Generator: Adobe Illustrator 16.0.0, SVG Export Plug-In . SVG Version: 6.00 Build 0)  -->
<!DOCTYPE svg PUBLIC "-//W3C//DTD SVG 1.1//EN" "http://www.w3.org/Graphics/SVG/1.1/DTD/svg11.dtd">
<svg version="1.1" id="Capa_1" xmlns="http://www.w3.org/2000/svg" xmlns:xlink="http://www.w3.org/1999/xlink" x="0px" y="0px"
	 width="150px" height="150px" viewBox="181 181 150 150" enable-background="new 181 181 150 150" xml:space="preserve">
<g>
	<path fill="#FFCC00" d="M310.563,225.06v0.009c0.986-2.083,1.563-4.257,1.563-6.486v-9.354c0-15.493-25.13-28.063-56.125-28.063
		c-30.995,0-56.125,12.57-56.125,28.063c0-0.768,0.109-1.517,0.228-2.266c-11.592,5.134-18.937,12.625-18.937,20.974v9.354
		c0,8.678,7.893,16.434,20.271,21.576l0,0c-0.987,2.083-1.562,4.257-1.562,6.486v9.354c0,3.289,1.188,6.422,3.27,9.354
		c-2.083,2.933-3.27,6.065-3.27,9.354v9.354c0,15.493,25.13,28.063,56.125,28.063c30.995,0,56.125-12.569,56.125-28.063v-9.354
		c0-3.344-1.233-6.532-3.371-9.501c-0.019,0.019-0.036,0.046-0.055,0.064c1.571-2.229,2.805-4.55,3.197-7.007
		c11.592-5.143,18.937-12.624,18.937-20.974v-9.354C330.833,237.968,322.94,230.203,310.563,225.06z M256,185.844
		c30.318,0,51.447,12.323,51.447,23.385c0,11.053-21.129,23.385-51.447,23.385c-30.319,0-51.448-12.332-51.448-23.385
		C204.552,198.167,225.681,185.844,256,185.844z M185.844,227.938c0-5.462,5.179-11.208,14.031-15.648v6.294
		c0,15.493,25.13,28.063,56.125,28.063c4.632,0,9.107-0.311,13.41-0.84c-8.578,3.297-19.476,5.517-32.118,5.517
		C206.973,251.323,185.844,238.991,185.844,227.938z M307.447,293.417c0,11.053-21.129,23.385-51.447,23.385
		c-30.319,0-51.448-12.332-51.448-23.385c0-1.837,0.786-3.7,1.891-5.545c-0.009-0.01-0.027-0.028-0.037-0.046
		c9.418,8.888,28.09,14.944,49.593,14.944c21.531,0,40.111-6.102,49.511-15.009c-0.009,0.01-0.009,0.01-0.018,0.019
		C306.644,289.653,307.447,291.544,307.447,293.417z M288.137,283.222c-8.587,3.308-19.485,5.518-32.137,5.518
		c-30.319,0-51.448-12.332-51.448-23.385c0-1.59,0.548-3.197,1.379-4.787c4.586,1.544,9.656,2.759,15.073,3.572
		c6.979,11.527,28.373,19.923,53.703,19.923c4.649,0,9.145-0.311,13.465-0.85C288.164,283.213,288.155,283.222,288.137,283.222z
		 M274.708,270.031c-12.003,0-22.472-1.974-30.857-4.997c26.372-1.553,47.2-12.14,49.338-25.477
		c6.366-2.823,11.464-6.339,14.743-10.341c-0.009,0-0.009,0-0.009,0c11.327,4.604,18.233,11.181,18.233,17.43
		C326.156,257.699,305.027,270.031,274.708,270.031z M265.993,216.044c0-0.986-0.785-1.745-2.356-2.247
		c-1.571-0.512-5.069-1.169-10.486-1.955c-4.869-0.686-8.679-1.371-11.419-2.046c-2.741-0.676-4.97-1.626-6.678-2.833
		c-1.708-1.224-2.567-2.649-2.567-4.257c0-2.119,1.535-4.038,4.586-5.737c3.051-1.69,7.856-2.722,14.415-3.106v-3.343h8.862v3.343
		c9.902,0.494,16.314,2.777,19.229,6.889l-12.204,2.046c-2.384-2.813-6.058-4.221-11.044-4.221c-2.503,0-4.513,0.311-6.02,0.95
		c-1.517,0.621-2.275,1.388-2.275,2.284c0,0.914,0.731,1.607,2.192,2.101c1.453,0.484,4.586,1.078,9.374,1.809
		c5.262,0.786,9.391,1.525,12.377,2.229c2.997,0.694,5.381,1.663,7.171,2.896c1.781,1.233,2.676,2.677,2.676,4.321
		c0,2.54-1.844,4.641-5.525,6.331s-8.998,2.686-15.949,2.987v4.329h-8.862v-4.312c-11.592-0.484-18.763-3.252-21.531-8.276
		l13.702-1.461c1.27,3.161,5.472,4.741,12.606,4.741c3.334,0,5.801-0.338,7.372-1.014
		C265.209,217.815,265.993,217.003,265.993,216.044z"/>
</g>
</svg>
