<?xml version="1.0" encoding="utf-8"?>
<!-- Generator: Adobe Illustrator 16.0.0, SVG Export Plug-In . SVG Version: 6.00 Build 0)  -->
<!DOCTYPE svg PUBLIC "-//W3C//DTD SVG 1.1//EN" "http://www.w3.org/Graphics/SVG/1.1/DTD/svg11.dtd">
<svg version="1.1" id="Capa_1" xmlns="http://www.w3.org/2000/svg" xmlns:xlink="http://www.w3.org/1999/xlink" x="0px" y="0px"
	 width="32px" height="32px" viewBox="240 240 32 32" enable-background="new 240 240 32 32" xml:space="preserve">
<g>
	<g>
		<path fill="#FFCC00" d="M256,240.188c-8.719,0-15.813,7.094-15.813,15.813s7.094,15.813,15.813,15.813s15.813-7.094,15.813-15.813
			S264.72,240.188,256,240.188z M259.933,256.557h-2.572c0,4.11,0,9.17,0,9.17h-3.813c0,0,0-5.011,0-9.17h-1.812v-3.241h1.812
			v-2.096c0-1.501,0.713-3.847,3.848-3.847l2.824,0.011v3.146c0,0-1.717,0-2.051,0c-0.333,0-0.808,0.167-0.808,0.883v1.905h2.904
			L259.933,256.557z"/>
	</g>
</g>
</svg>
