<?xml version="1.0" encoding="utf-8"?>
<!-- Generator: Adobe Illustrator 16.0.0, SVG Export Plug-In . SVG Version: 6.00 Build 0)  -->
<!DOCTYPE svg PUBLIC "-//W3C//DTD SVG 1.1//EN" "http://www.w3.org/Graphics/SVG/1.1/DTD/svg11.dtd">
<svg version="1.1" id="Capa_1" xmlns="http://www.w3.org/2000/svg" xmlns:xlink="http://www.w3.org/1999/xlink" x="0px" y="0px"
	 width="32px" height="32px" viewBox="240 240 32 32" enable-background="new 240 240 32 32" xml:space="preserve">
<g>
	<g>
		<g>
			<path fill="#FFCC00" d="M255.999,259.17c1.747,0,3.172-1.422,3.172-3.17c0-0.69-0.226-1.327-0.601-1.848
				c-0.575-0.798-1.512-1.322-2.569-1.322s-1.993,0.523-2.57,1.322c-0.375,0.521-0.599,1.157-0.6,1.847
				C252.829,257.747,254.252,259.17,255.999,259.17z"/>
			<polygon fill="#FFCC00" points="262.921,252.123 262.921,249.465 262.921,249.07 262.523,249.071 259.868,249.08 
				259.878,252.132 			"/>
			<path fill="#FFCC00" d="M256,240.167c-8.73,0-15.833,7.103-15.833,15.833s7.103,15.834,15.833,15.834s15.834-7.104,15.834-15.834
				S264.73,240.167,256,240.167z M265.005,254.152v7.372c0,1.921-1.562,3.481-3.48,3.481h-11.049c-1.919,0-3.48-1.561-3.48-3.481
				v-7.372v-3.676c0-1.919,1.561-3.48,3.48-3.48h11.049c1.919,0,3.48,1.561,3.48,3.48V254.152z"/>
			<path fill="#FFCC00" d="M260.926,256c0,2.715-2.21,4.926-4.926,4.926c-2.716,0-4.925-2.211-4.925-4.926
				c0-0.653,0.13-1.277,0.362-1.848h-2.688v7.372c0,0.953,0.774,1.726,1.726,1.726h11.048c0.951,0,1.726-0.772,1.726-1.726v-7.372
				h-2.689C260.793,254.723,260.926,255.347,260.926,256z"/>
		</g>
	</g>
</g>
</svg>
