<?xml version="1.0" encoding="utf-8"?>
<!-- Generator: Adobe Illustrator 16.0.0, SVG Export Plug-In . SVG Version: 6.00 Build 0)  -->
<!DOCTYPE svg PUBLIC "-//W3C//DTD SVG 1.1//EN" "http://www.w3.org/Graphics/SVG/1.1/DTD/svg11.dtd">
<svg version="1.1" id="Layer_1" xmlns="http://www.w3.org/2000/svg" xmlns:xlink="http://www.w3.org/1999/xlink" x="0px" y="0px"
	 width="96px" height="64px" viewBox="0 0 96 64" enable-background="new 0 0 96 64" xml:space="preserve">
<g>
	<g>
		<path fill="#FFCD05" d="M15.813,0.271C7.094,0.271,0,7.364,0,16.083s7.094,15.813,15.813,15.813s15.813-7.094,15.813-15.813
			S24.532,0.271,15.813,0.271z M19.745,16.64h-2.572c0,4.11,0,9.17,0,9.17H13.36c0,0,0-5.011,0-9.17h-1.812v-3.241h1.812v-2.096
			c0-1.501,0.713-3.847,3.848-3.847l2.824,0.011v3.146c0,0-1.717,0-2.051,0c-0.333,0-0.808,0.167-0.808,0.883V13.4h2.904
			L19.745,16.64z"/>
	</g>
</g>
<g>
	<g>
		<path fill="#FFCD05" d="M48,0.271c-8.616,0-15.625,7.009-15.625,15.625c0,8.615,7.009,15.625,15.625,15.625
			c8.615,0,15.625-7.01,15.625-15.625C63.625,7.28,56.616,0.271,48,0.271z M54.971,12.319c0.007,0.155,0.01,0.311,0.01,0.467
			c0,4.753-3.616,10.23-10.232,10.23c-2.031,0-3.922-0.594-5.513-1.614c0.281,0.033,0.567,0.051,0.857,0.051
			c1.686,0,3.236-0.575,4.467-1.539c-1.573-0.029-2.902-1.069-3.359-2.499c0.219,0.042,0.445,0.065,0.676,0.065
			c0.328,0,0.646-0.043,0.948-0.125c-1.646-0.33-2.885-1.783-2.885-3.527c0-0.015,0-0.031,0.001-0.045
			c0.484,0.269,1.039,0.431,1.628,0.45c-0.964-0.644-1.599-1.746-1.599-2.993c0-0.66,0.176-1.278,0.486-1.809
			c1.772,2.176,4.424,3.607,7.412,3.759c-0.063-0.264-0.093-0.538-0.093-0.82c0-1.986,1.61-3.596,3.596-3.596
			c1.034,0,1.968,0.437,2.625,1.136c0.82-0.162,1.588-0.46,2.285-0.873c-0.271,0.84-0.84,1.544-1.584,1.99
			c0.729-0.087,1.423-0.279,2.065-0.565C56.283,11.18,55.673,11.814,54.971,12.319z"/>
	</g>
</g>
<g>
	<g>
		<g>
			<path fill="#FFCD05" d="M80.165,19.274c1.747,0,3.172-1.422,3.172-3.17c0-0.69-0.226-1.327-0.601-1.848
				c-0.575-0.798-1.512-1.322-2.569-1.322s-1.993,0.523-2.57,1.322c-0.376,0.521-0.599,1.157-0.6,1.847
				C76.995,17.851,78.418,19.274,80.165,19.274z"/>
			<polygon fill="#FFCD05" points="87.087,12.227 87.087,9.569 87.087,9.174 86.689,9.175 84.034,9.184 84.044,12.236 			"/>
			<path fill="#FFCD05" d="M80.166,0.271c-8.73,0-15.834,7.103-15.834,15.833s7.104,15.834,15.834,15.834S96,24.834,96,16.104
				S88.896,0.271,80.166,0.271z M89.171,14.256v7.372c0,1.921-1.562,3.481-3.48,3.481H74.642c-1.919,0-3.48-1.561-3.48-3.481v-7.372
				V10.58c0-1.919,1.562-3.48,3.48-3.48H85.69c1.919,0,3.48,1.561,3.48,3.48V14.256z"/>
			<path fill="#FFCD05" d="M85.092,16.104c0,2.715-2.21,4.926-4.926,4.926c-2.717,0-4.925-2.211-4.925-4.926
				c0-0.653,0.13-1.277,0.362-1.848h-2.688v7.372c0,0.953,0.774,1.726,1.726,1.726h11.049c0.951,0,1.726-0.772,1.726-1.726v-7.372
				h-2.689C84.959,14.827,85.092,15.451,85.092,16.104z"/>
		</g>
	</g>
</g>
<g>
	<g>
		<path fill="#FFFFFF" d="M15.813,32.062C7.094,32.062,0,39.155,0,47.874s7.094,15.813,15.813,15.813s15.813-7.094,15.813-15.813
			S24.532,32.062,15.813,32.062z M19.745,48.431h-2.572c0,4.109,0,9.17,0,9.17H13.36c0,0,0-5.012,0-9.17h-1.812V45.19h1.812v-2.096
			c0-1.501,0.713-3.847,3.848-3.847l2.824,0.011v3.146c0,0-1.717,0-2.051,0c-0.333,0-0.808,0.167-0.808,0.883v1.905h2.904
			L19.745,48.431z"/>
	</g>
</g>
<g>
	<g>
		<path fill="#FFFFFF" d="M48,32.062c-8.616,0-15.625,7.009-15.625,15.625c0,8.615,7.009,15.625,15.625,15.625
			c8.615,0,15.625-7.01,15.625-15.625C63.625,39.071,56.616,32.062,48,32.062z M54.971,44.11c0.007,0.155,0.01,0.311,0.01,0.467
			c0,4.753-3.616,10.23-10.232,10.23c-2.031,0-3.922-0.594-5.513-1.615c0.281,0.033,0.567,0.051,0.857,0.051
			c1.686,0,3.236-0.574,4.467-1.539c-1.573-0.029-2.902-1.068-3.359-2.498c0.219,0.042,0.445,0.065,0.676,0.065
			c0.328,0,0.646-0.043,0.948-0.125c-1.646-0.33-2.885-1.783-2.885-3.527c0-0.015,0-0.031,0.001-0.045
			c0.484,0.269,1.039,0.431,1.628,0.45c-0.964-0.644-1.599-1.746-1.599-2.993c0-0.66,0.176-1.278,0.486-1.809
			c1.772,2.176,4.424,3.607,7.412,3.759c-0.063-0.264-0.093-0.538-0.093-0.82c0-1.986,1.61-3.596,3.596-3.596
			c1.034,0,1.968,0.437,2.625,1.136c0.82-0.162,1.588-0.46,2.285-0.873c-0.271,0.84-0.84,1.544-1.584,1.99
			c0.729-0.087,1.423-0.279,2.065-0.565C56.283,42.971,55.673,43.605,54.971,44.11z"/>
	</g>
</g>
<g>
	<g>
		<g>
			<path fill="#FFFFFF" d="M80.165,51.065c1.747,0,3.172-1.422,3.172-3.17c0-0.69-0.226-1.327-0.601-1.848
				c-0.575-0.798-1.512-1.322-2.569-1.322s-1.993,0.523-2.57,1.322c-0.376,0.521-0.599,1.157-0.6,1.847
				C76.995,49.642,78.418,51.065,80.165,51.065z"/>
			<polygon fill="#FFFFFF" points="87.087,44.018 87.087,41.36 87.087,40.965 86.689,40.966 84.034,40.975 84.044,44.027 			"/>
			<path fill="#FFFFFF" d="M80.166,32.062c-8.73,0-15.834,7.103-15.834,15.833c0,8.731,7.104,15.834,15.834,15.834
				S96,56.626,96,47.895C96,39.165,88.896,32.062,80.166,32.062z M89.171,46.047v7.372c0,1.922-1.562,3.482-3.48,3.482H74.642
				c-1.919,0-3.48-1.561-3.48-3.482v-7.372v-3.676c0-1.919,1.562-3.48,3.48-3.48H85.69c1.919,0,3.48,1.561,3.48,3.48V46.047z"/>
			<path fill="#FFFFFF" d="M85.092,47.895c0,2.715-2.21,4.926-4.926,4.926c-2.717,0-4.925-2.211-4.925-4.926
				c0-0.653,0.13-1.277,0.362-1.848h-2.688v7.372c0,0.953,0.774,1.727,1.726,1.727h11.049c0.951,0,1.726-0.773,1.726-1.727v-7.372
				h-2.689C84.959,46.618,85.092,47.242,85.092,47.895z"/>
		</g>
	</g>
</g>
</svg>
