<?xml version="1.0" encoding="utf-8"?>
<!-- Generator: Adobe Illustrator 16.0.0, SVG Export Plug-In . SVG Version: 6.00 Build 0)  -->
<!DOCTYPE svg PUBLIC "-//W3C//DTD SVG 1.1//EN" "http://www.w3.org/Graphics/SVG/1.1/DTD/svg11.dtd">
<svg version="1.1" id="Capa_1" xmlns="http://www.w3.org/2000/svg" xmlns:xlink="http://www.w3.org/1999/xlink" x="0px" y="0px"
	 width="32px" height="32px" viewBox="240 240 32 32" enable-background="new 240 240 32 32" xml:space="preserve">
<g>
	<g>
		<path fill="#FFCC00" d="M256,240.375c-8.616,0-15.625,7.009-15.625,15.625c0,8.615,7.009,15.625,15.625,15.625
			c8.615,0,15.625-7.01,15.625-15.625C271.625,247.384,264.616,240.375,256,240.375z M262.971,252.424
			c0.007,0.155,0.01,0.311,0.01,0.467c0,4.753-3.616,10.23-10.232,10.23c-2.031,0-3.922-0.594-5.513-1.614
			c0.281,0.033,0.567,0.051,0.858,0.051c1.685,0,3.235-0.575,4.467-1.539c-1.574-0.029-2.902-1.069-3.36-2.499
			c0.219,0.042,0.445,0.065,0.676,0.065c0.328,0,0.646-0.043,0.948-0.125c-1.646-0.33-2.885-1.783-2.885-3.527
			c0-0.015,0-0.031,0-0.045c0.485,0.269,1.039,0.431,1.628,0.45c-0.964-0.644-1.599-1.746-1.599-2.993
			c0-0.66,0.177-1.278,0.486-1.809c1.773,2.176,4.424,3.607,7.412,3.759c-0.062-0.264-0.092-0.538-0.092-0.82
			c0-1.986,1.61-3.596,3.596-3.596c1.034,0,1.968,0.437,2.625,1.136c0.82-0.162,1.588-0.46,2.285-0.873
			c-0.271,0.84-0.84,1.544-1.584,1.99c0.729-0.087,1.423-0.279,2.065-0.565C264.283,251.285,263.673,251.918,262.971,252.424z"/>
	</g>
</g>
</svg>
